<?xml version="1.0" encoding="UTF-8"?>
<!DOCTYPE svg PUBLIC "-//W3C//DTD SVG 1.1//EN" "http://www.w3.org/Graphics/SVG/1.1/DTD/svg11.dtd">
<svg xmlns="http://www.w3.org/2000/svg" version="1.1" width="512px" height="167px" style="shape-rendering:geometricPrecision; text-rendering:geometricPrecision; image-rendering:optimizeQuality; fill-rule:evenodd; clip-rule:evenodd" xmlns:xlink="http://www.w3.org/1999/xlink">
<g><path style="opacity:0.498" fill="#170f3f" d="M 80.5,30.5 C 69.5061,21.2999 57.1728,18.9665 43.5,23.5C 54.2555,17.9978 64.9222,18.4978 75.5,25C 78.079,26.0757 79.7457,27.909 80.5,30.5 Z"/></g>
<g><path style="opacity:0.322" fill="#1e124b" d="M 43.5,23.5 C 41.9663,25.369 39.9663,26.7023 37.5,27.5C 38.8021,25.1782 40.8021,23.8449 43.5,23.5 Z"/></g>
<g><path style="opacity:1" fill="#6945d6" d="M 80.5,30.5 C 81.1667,31.8333 82.1667,32.8333 83.5,33.5C 84.3382,33.8417 84.6716,34.5084 84.5,35.5C 84.427,37.0269 85.0937,38.0269 86.5,38.5C 88.0739,40.1016 88.7406,42.1016 88.5,44.5C 88.5,45.8333 88.5,47.1667 88.5,48.5C 88.5,50.1667 88.5,51.8333 88.5,53.5C 87.5,53.5 86.5,53.5 85.5,53.5C 85.5,59.8333 85.5,66.1667 85.5,72.5C 84.8333,72.5 84.1667,72.5 83.5,72.5C 83.5,65.8333 83.5,59.1667 83.5,52.5C 84.7251,51.8478 85.3917,50.6811 85.5,49C 85.6932,46.9919 85.0265,45.4919 83.5,44.5C 83.8799,42.302 83.2132,40.6354 81.5,39.5C 81.1667,38.8333 80.8333,38.1667 80.5,37.5C 79.5265,34.865 77.8598,32.865 75.5,31.5C 75.0269,30.0937 74.0269,29.427 72.5,29.5C 71.0929,27.3861 69.0929,25.8861 66.5,25C 60.9836,24.1826 55.6503,24.3493 50.5,25.5C 47.2459,25.7936 44.5792,27.127 42.5,29.5C 40.9095,31.6326 38.9095,33.2993 36.5,34.5C 34.7376,35.2623 33.7376,36.5956 33.5,38.5C 31.8958,39.287 31.2291,40.6203 31.5,42.5C 31.5,43.1667 31.5,43.8333 31.5,44.5C 30.8826,44.6107 30.3826,44.944 30,45.5C 29.5034,47.8098 29.3367,50.1432 29.5,52.5C 28.6981,51.0484 28.1981,49.3817 28,47.5C 27.9504,49.744 27.1171,51.4107 25.5,52.5C 25.5,51.8333 25.5,51.1667 25.5,50.5C 25.5,49.8333 25.5,49.1667 25.5,48.5C 27.4342,44.6973 28.7676,40.6973 29.5,36.5C 32.3918,33.729 35.0584,30.729 37.5,27.5C 39.9663,26.7023 41.9663,25.369 43.5,23.5C 57.1728,18.9665 69.5061,21.2999 80.5,30.5 Z M 53.5,25.5 C 60.1518,25.5425 66.4851,26.8758 72.5,29.5C 72.9731,30.9063 73.9731,31.573 75.5,31.5C 76.4431,34.1092 78.1097,36.1092 80.5,37.5C 80.8333,38.1667 81.1667,38.8333 81.5,39.5C 81.7959,41.403 82.4625,43.0697 83.5,44.5C 84.2309,46.5988 84.2309,48.5988 83.5,50.5C 80.8448,50.2032 78.1782,49.2032 75.5,47.5C 74.4863,46.3263 73.153,45.6596 71.5,45.5C 65.391,42.4922 59.0577,41.8255 52.5,43.5C 49.8478,43.4095 47.5145,44.0762 45.5,45.5C 43.326,45.7497 41.6594,46.7497 40.5,48.5C 37.6093,50.3101 34.6093,50.9768 31.5,50.5C 30.4808,48.5405 30.4808,46.5405 31.5,44.5C 31.5,43.8333 31.5,43.1667 31.5,42.5C 32.6737,41.4863 33.3404,40.153 33.5,38.5C 35.2624,37.7377 36.2624,36.4044 36.5,34.5C 38.9095,33.2993 40.9095,31.6326 42.5,29.5C 46.1495,27.8292 49.8161,26.4959 53.5,25.5 Z"/></g>
<g><path style="opacity:0.871" fill="#2e1c6c" d="M 50.5,25.5 C 55.6503,24.3493 60.9836,24.1826 66.5,25C 69.0929,25.8861 71.0929,27.3861 72.5,29.5C 66.4851,26.8758 60.1518,25.5425 53.5,25.5C 52.5,25.5 51.5,25.5 50.5,25.5 Z"/></g>
<g><path style="opacity:0.235" fill="#100738" d="M 37.5,27.5 C 35.0584,30.729 32.3918,33.729 29.5,36.5C 31.0225,32.436 33.6891,29.436 37.5,27.5 Z"/></g>
<g><path style="opacity:0.016" fill="#140c39" d="M 50.5,25.5 C 51.5,25.5 52.5,25.5 53.5,25.5C 49.8161,26.4959 46.1495,27.8292 42.5,29.5C 44.5792,27.127 47.2459,25.7936 50.5,25.5 Z"/></g>
<g><path style="opacity:0.447" fill="#140c4a" d="M 72.5,29.5 C 74.0269,29.427 75.0269,30.0937 75.5,31.5C 73.9731,31.573 72.9731,30.9063 72.5,29.5 Z"/></g>
<g><path style="opacity:0.027" fill="#10042b" d="M 80.5,30.5 C 82.5,30.5 83.5,31.5 83.5,33.5C 82.1667,32.8333 81.1667,31.8333 80.5,30.5 Z"/></g>
<g><path style="opacity:0.012" fill="#150f42" d="M 75.5,31.5 C 77.8598,32.865 79.5265,34.865 80.5,37.5C 78.1097,36.1092 76.4431,34.1092 75.5,31.5 Z"/></g>
<g><path style="opacity:0.039" fill="#110e41" d="M 36.5,34.5 C 36.2624,36.4044 35.2624,37.7377 33.5,38.5C 33.7376,36.5956 34.7376,35.2623 36.5,34.5 Z"/></g>
<g><path style="opacity:0.271" fill="#1b1248" d="M 84.5,35.5 C 85.9063,35.9731 86.573,36.9731 86.5,38.5C 85.0937,38.0269 84.427,37.0269 84.5,35.5 Z"/></g>
<g><path style="opacity:0.859" fill="#5a3cb5" d="M 194.5,37.5 C 197.059,37.1984 199.393,37.5318 201.5,38.5C 198.43,38.3677 195.43,38.701 192.5,39.5C 192.5,39.1667 192.5,38.8333 192.5,38.5C 192.842,37.6618 193.508,37.3284 194.5,37.5 Z"/></g>
<g><path style="opacity:0.259" fill="#0f0839" d="M 194.5,37.5 C 198.595,36.0114 202.595,36.5114 206.5,39C 207.823,39.8159 208.489,40.9826 208.5,42.5C 206.772,40.7745 204.772,39.4411 202.5,38.5C 202.167,38.5 201.833,38.5 201.5,38.5C 199.393,37.5318 197.059,37.1984 194.5,37.5 Z"/></g>
<g><path style="opacity:0.463" fill="#281865" d="M 33.5,38.5 C 33.3404,40.153 32.6737,41.4863 31.5,42.5C 31.2291,40.6203 31.8958,39.287 33.5,38.5 Z"/></g>
<g><path style="opacity:0.514" fill="#1d114e" d="M 192.5,38.5 C 192.5,38.8333 192.5,39.1667 192.5,39.5C 191.833,39.5 191.5,39.8333 191.5,40.5C 190.5,41.1667 189.5,41.8333 188.5,42.5C 188.833,40.1667 190.167,38.8333 192.5,38.5 Z"/></g>
<g><path style="opacity:0.11" fill="#0d052c" d="M 81.5,39.5 C 83.2132,40.6354 83.8799,42.302 83.5,44.5C 82.4625,43.0697 81.7959,41.403 81.5,39.5 Z"/></g>
<g><path style="opacity:0.142" fill="#080033" d="M 135.5,45.5 C 129.256,44.5422 122.923,44.2088 116.5,44.5C 117.172,43.7326 118.005,43.0659 119,42.5C 123.469,43.8106 127.969,43.8106 132.5,42.5C 134.213,42.8793 135.213,43.8793 135.5,45.5 Z"/></g>
<g><path style="opacity:0.725" fill="#581f4b" d="M 52.5,43.5 C 50.4855,44.9238 48.1522,45.5905 45.5,45.5C 47.5145,44.0762 49.8478,43.4095 52.5,43.5 Z"/></g>
<g><path style="opacity:0.384" fill="#20154f" d="M 29.5,36.5 C 28.7676,40.6973 27.4342,44.6973 25.5,48.5C 25.3664,44.2317 26.6997,40.2317 29.5,36.5 Z"/></g>
<g><path style="opacity:0.573" fill="#661f4b" d="M 45.5,45.5 C 44.5144,47.4077 42.8477,48.4077 40.5,48.5C 41.6594,46.7497 43.326,45.7497 45.5,45.5 Z"/></g>
<g><path style="opacity:1" fill="#883369" d="M 71.5,45.5 C 73.153,45.6596 74.4863,46.3263 75.5,47.5C 75.5,47.8333 75.5,48.1667 75.5,48.5C 73.3812,48.5323 72.0478,47.5323 71.5,45.5 Z"/></g>
<g><path style="opacity:0.839" fill="#362479" d="M 188.5,42.5 C 188.423,46.2148 188.756,49.8815 189.5,53.5C 188.833,52.8333 188.167,52.1667 187.5,51.5C 186.848,50.5514 186.514,49.3847 186.5,48C 186.393,45.7794 187.06,43.9461 188.5,42.5 Z"/></g>
<g><path style="opacity:1" fill="#c14b98" d="M 71.5,45.5 C 72.0478,47.5323 73.3812,48.5323 75.5,48.5C 76.8333,49.1667 77.8333,50.1667 78.5,51.5C 78.1667,51.5 77.8333,51.5 77.5,51.5C 75.6023,50.9107 73.6023,50.744 71.5,51C 69.9632,49.8904 69.2965,48.3904 69.5,46.5C 66.2479,45.6234 62.9146,44.9567 59.5,44.5C 55.4294,45.0243 51.4294,45.8576 47.5,47C 46.0722,48.9162 45.0722,51.0829 44.5,53.5C 43.7189,52.2713 43.2189,50.938 43,49.5C 41.2591,50.7577 39.4258,51.7577 37.5,52.5C 38.5,51.1667 39.5,49.8333 40.5,48.5C 42.8477,48.4077 44.5144,47.4077 45.5,45.5C 48.1522,45.5905 50.4855,44.9238 52.5,43.5C 59.0577,41.8255 65.391,42.4922 71.5,45.5 Z"/></g>
<g><path style="opacity:1" fill="#7444fd" d="M 201.5,38.5 C 201.833,38.5 202.167,38.5 202.5,38.5C 203.207,40.1344 204.373,41.4677 206,42.5C 206.667,45.8333 206.667,49.1667 206,52.5C 205.667,51.8333 205.333,51.1667 205,50.5C 204.505,52.4727 204.338,54.4727 204.5,56.5C 191.174,58.1883 186.841,52.855 191.5,40.5C 191.5,39.8333 191.833,39.5 192.5,39.5C 195.43,38.701 198.43,38.3677 201.5,38.5 Z"/></g>
<g><path style="opacity:0.057" fill="#0d062f" d="M 88.5,44.5 C 90.0395,46.8383 90.7062,49.5049 90.5,52.5C 89.8333,51.1667 89.1667,49.8333 88.5,48.5C 88.5,47.1667 88.5,45.8333 88.5,44.5 Z"/></g>
<g><path style="opacity:0.443" fill="#260e3e" d="M 31.5,44.5 C 30.4808,46.5405 30.4808,48.5405 31.5,50.5C 34.6093,50.9768 37.6093,50.3101 40.5,48.5C 39.5,49.8333 38.5,51.1667 37.5,52.5C 36.8333,52.5 36.1667,52.5 35.5,52.5C 34.1667,51.1667 32.8333,51.1667 31.5,52.5C 30.8333,52.5 30.1667,52.5 29.5,52.5C 29.3367,50.1432 29.5034,47.8098 30,45.5C 30.3826,44.944 30.8826,44.6107 31.5,44.5 Z"/></g>
<g><path style="opacity:0.082" fill="#190d38" d="M 83.5,44.5 C 85.0265,45.4919 85.6932,46.9919 85.5,49C 85.3917,50.6811 84.7251,51.8478 83.5,52.5C 82.0813,51.5489 80.4147,51.2155 78.5,51.5C 77.8333,50.1667 76.8333,49.1667 75.5,48.5C 75.5,48.1667 75.5,47.8333 75.5,47.5C 78.1782,49.2032 80.8448,50.2032 83.5,50.5C 84.2309,48.5988 84.2309,46.5988 83.5,44.5 Z"/></g>
<g><path style="opacity:1" fill="#6d48df" d="M 202.5,38.5 C 204.772,39.4411 206.772,40.7745 208.5,42.5C 208.665,45.8499 208.498,49.1832 208,52.5C 207.34,54.3237 206.173,55.657 204.5,56.5C 204.338,54.4727 204.505,52.4727 205,50.5C 205.333,51.1667 205.667,51.8333 206,52.5C 206.667,49.1667 206.667,45.8333 206,42.5C 204.373,41.4677 203.207,40.1344 202.5,38.5 Z"/></g>
<g><path style="opacity:0.098" fill="#10042b" d="M 187.5,51.5 C 188.167,52.1667 188.833,52.8333 189.5,53.5C 189.5,54.1667 189.5,54.8333 189.5,55.5C 187.896,54.713 187.229,53.3797 187.5,51.5 Z"/></g>
<g><path style="opacity:1" fill="#6c48d7" d="M 191.5,40.5 C 186.841,52.855 191.174,58.1883 204.5,56.5C 204.5,56.8333 204.5,57.1667 204.5,57.5C 201.545,58.1587 198.545,58.4921 195.5,58.5C 193.544,57.5082 191.544,56.5082 189.5,55.5C 189.5,54.8333 189.5,54.1667 189.5,53.5C 188.756,49.8815 188.423,46.2148 188.5,42.5C 189.5,41.8333 190.5,41.1667 191.5,40.5 Z"/></g>
<g><path style="opacity:1" fill="#7444fb" d="M 311.5,66.5 C 317.833,67.1667 324.167,67.8333 330.5,68.5C 330.5,71.8333 330.5,75.1667 330.5,78.5C 323.745,77.8771 317.412,78.5437 311.5,80.5C 311.5,80.8333 311.5,81.1667 311.5,81.5C 310.669,92.6593 310.169,103.993 310,115.5C 309.363,117.303 308.197,118.636 306.5,119.5C 308.22,119.746 310.22,119.746 312.5,119.5C 311.986,121.512 311.82,123.512 312,125.5C 314.512,123.305 317.345,122.972 320.5,124.5C 322.03,124.36 323.03,123.693 323.5,122.5C 325.527,122.338 327.527,122.505 329.5,123C 330.085,124.302 330.751,125.469 331.5,126.5C 331.662,128.527 331.495,130.527 331,132.5C 329.823,128.732 328.656,128.899 327.5,133C 327.833,133.333 328.167,133.667 328.5,134C 320.833,134.667 313.167,134.667 305.5,134C 304.426,133.261 303.759,132.261 303.5,131C 304.035,129.463 304.368,127.963 304.5,126.5C 302.469,124.522 300.803,124.522 299.5,126.5C 298.712,125.23 297.712,124.23 296.5,123.5C 295.732,122.737 295.232,121.737 295,120.5C 294.831,106.994 294.331,93.6604 293.5,80.5C 290.713,79.5233 287.713,79.19 284.5,79.5C 284.5,75.5 284.5,71.5 284.5,67.5C 287.713,67.81 290.713,67.4767 293.5,66.5C 294.167,66.5 294.5,66.1667 294.5,65.5C 295.323,62.023 295.823,58.3563 296,54.5C 296.995,53.9341 297.828,53.2674 298.5,52.5C 302.772,51.5103 307.106,50.8437 311.5,50.5C 311.5,55.8333 311.5,61.1667 311.5,66.5 Z"/></g>
<g><path style="opacity:0.518" fill="#1a0e48" d="M 189.5,55.5 C 191.544,56.5082 193.544,57.5082 195.5,58.5C 192.687,58.9754 190.687,57.9754 189.5,55.5 Z"/></g>
<g><path style="opacity:0.008" fill="#140b36" d="M 208.5,42.5 C 211.102,46.7732 210.935,51.1065 208,55.5C 207.184,56.8228 206.017,57.4894 204.5,57.5C 204.5,57.1667 204.5,56.8333 204.5,56.5C 206.173,55.657 207.34,54.3237 208,52.5C 208.498,49.1832 208.665,45.8499 208.5,42.5 Z"/></g>
<g><path style="opacity:0.357" fill="#120246" d="M 90.5,53.5 C 91.224,55.2184 91.8906,57.0517 92.5,59C 91.6622,62.8229 91.6622,66.4896 92.5,70C 92.1918,71.4595 91.5251,72.6261 90.5,73.5C 90.5,66.8333 90.5,60.1667 90.5,53.5 Z"/></g>
<g><path style="opacity:1" fill="#bc4994" d="M 65.5,58.5 C 64.8333,58.5 64.1667,58.5 63.5,58.5C 62.5084,58.6716 61.8417,58.3382 61.5,57.5C 60.5514,56.8476 59.3847,56.5143 58,56.5C 55.9919,56.3068 54.4919,56.9735 53.5,58.5C 53.5,59.1667 53.1667,59.5 52.5,59.5C 51.8826,59.6107 51.3826,59.944 51,60.5C 50.1955,63.6965 50.3622,66.6965 51.5,69.5C 53.0018,73.741 55.6685,75.741 59.5,75.5C 58.7002,77.7409 57.0336,78.7409 54.5,78.5C 54.7709,76.6203 54.1042,75.287 52.5,74.5C 51.1154,73.4264 49.9487,72.0931 49,70.5C 48.7516,66.3904 48.5849,62.3904 48.5,58.5C 52.9997,54.8148 57.9997,53.8148 63.5,55.5C 64.6119,56.2652 65.2786,57.2652 65.5,58.5 Z"/></g>
<g><path style="opacity:0.031" fill="#0c022a" d="M 204.5,57.5 C 203.054,58.9402 201.221,59.6068 199,59.5C 197.615,59.4857 196.449,59.1524 195.5,58.5C 198.545,58.4921 201.545,58.1587 204.5,57.5 Z"/></g>
<g><path style="opacity:0.916" fill="#6b4bc8" d="M 88.5,48.5 C 89.1667,49.8333 89.8333,51.1667 90.5,52.5C 90.5,52.8333 90.5,53.1667 90.5,53.5C 90.5,60.1667 90.5,66.8333 90.5,73.5C 88.1667,73.5 85.8333,73.5 83.5,73.5C 83.5,73.1667 83.5,72.8333 83.5,72.5C 84.1667,72.5 84.8333,72.5 85.5,72.5C 86.8333,72.5 88.1667,72.5 89.5,72.5C 89.8235,65.9779 89.4902,59.6446 88.5,53.5C 88.5,51.8333 88.5,50.1667 88.5,48.5 Z"/></g>
<g><path style="opacity:1" fill="#8647f2" d="M 77.5,51.5 C 77.8333,51.5 78.1667,51.5 78.5,51.5C 80.4147,51.2155 82.0813,51.5489 83.5,52.5C 83.5,59.1667 83.5,65.8333 83.5,72.5C 83.5,72.8333 83.5,73.1667 83.5,73.5C 82.4324,74.4345 81.099,74.7678 79.5,74.5C 79.5,73.8333 79.1667,73.5 78.5,73.5C 77.5084,66.3524 77.175,59.0191 77.5,51.5 Z"/></g>
<g><path style="opacity:1" fill="#7446f9" d="M 29.5,52.5 C 29.5,59.1667 29.5,65.8333 29.5,72.5C 28.1667,72.5 26.8333,72.5 25.5,72.5C 25.5,66.1667 25.5,59.8333 25.5,53.5C 25.5,53.1667 25.5,52.8333 25.5,52.5C 27.1171,51.4107 27.9504,49.744 28,47.5C 28.1981,49.3817 28.6981,51.0484 29.5,52.5 Z"/></g>
<g><path style="opacity:0.129" fill="#070027" d="M 368.5,65.5 C 370.978,64.8359 373.645,64.5025 376.5,64.5C 380.469,64.2942 384.135,64.9608 387.5,66.5C 381.203,65.6803 374.869,65.347 368.5,65.5 Z"/></g>
<g><path style="opacity:0.135" fill="#070031" d="M 207.5,66.5 C 201.5,66.5 195.5,66.5 189.5,66.5C 189.783,65.7109 190.283,65.0442 191,64.5C 196.6,65.1464 202.1,65.8131 207.5,66.5 Z"/></g>
<g><path style="opacity:0.153" fill="#0b002e" d="M 293.5,60.5 C 293.5,62.5 293.5,64.5 293.5,66.5C 290.167,66.5 286.833,66.5 283.5,66.5C 283.97,65.3065 284.97,64.6399 286.5,64.5C 288.512,64.8396 290.512,65.1729 292.5,65.5C 292.216,63.5853 292.549,61.9187 293.5,60.5 Z"/></g>
<g><path style="opacity:0.129" fill="#100944" d="M 331.5,66.5 C 324.833,66.5 318.167,66.5 311.5,66.5C 311.5,61.1667 311.5,55.8333 311.5,50.5C 307.106,50.8437 302.772,51.5103 298.5,52.5C 297.167,52.5 295.833,52.5 294.5,52.5C 294.5,56.8333 294.5,61.1667 294.5,65.5C 294.5,66.1667 294.167,66.5 293.5,66.5C 293.5,64.5 293.5,62.5 293.5,60.5C 293.055,57.72 293.055,55.0534 293.5,52.5C 298.522,50.8913 303.688,49.8913 309,49.5C 310.955,49.6406 312.455,50.474 313.5,52C 312.167,56.3333 312.167,60.6667 313.5,65C 319.084,65.8056 324.584,65.6389 330,64.5C 330.717,65.0442 331.217,65.7109 331.5,66.5 Z"/></g>
<g><path style="opacity:0.986" fill="#6e4ed2" d="M 298.5,52.5 C 297.828,53.2674 296.995,53.9341 296,54.5C 295.823,58.3563 295.323,62.023 294.5,65.5C 294.5,61.1667 294.5,56.8333 294.5,52.5C 295.833,52.5 297.167,52.5 298.5,52.5 Z"/></g>
<g><path style="opacity:0.176" fill="#090235" d="M 439.5,67.5 C 439.167,67.5 438.833,67.5 438.5,67.5C 433.025,66.5111 427.358,66.1778 421.5,66.5C 422.997,65.6942 424.664,65.0276 426.5,64.5C 431.239,64.7781 435.573,65.7781 439.5,67.5 Z"/></g>
<g><path style="opacity:1" fill="#7644f9" d="M 35.5,52.5 C 35.5,59.5 35.5,66.5 35.5,73.5C 34.5,73.5 33.5,73.5 32.5,73.5C 31.6591,66.5352 31.3257,59.5352 31.5,52.5C 32.8333,51.1667 34.1667,51.1667 35.5,52.5 Z"/></g>
<g><path style="opacity:0.824" fill="#6e52c5" d="M 311.5,66.5 C 318.167,66.5 324.833,66.5 331.5,66.5C 331.5,67.1667 331.5,67.8333 331.5,68.5C 331.167,68.5 330.833,68.5 330.5,68.5C 324.167,67.8333 317.833,67.1667 311.5,66.5 Z"/></g>
<g><path style="opacity:0.733" fill="#1b1545" d="M 468.5,65.5 C 468.167,65.5 467.833,65.5 467.5,65.5C 461.346,65.1783 455.346,65.845 449.5,67.5C 450.842,66.207 452.509,65.3736 454.5,65C 459.352,64.1849 464.019,64.3516 468.5,65.5 Z"/></g>
<g><path style="opacity:0.769" fill="#2c1e63" d="M 467.5,65.5 C 467.833,65.5 468.167,65.5 468.5,65.5C 470.786,65.595 472.786,66.2616 474.5,67.5C 472.473,67.6621 470.473,67.4955 468.5,67C 467.944,66.6174 467.611,66.1174 467.5,65.5 Z"/></g>
<g><path style="opacity:0.247" fill="#0f083a" d="M 242.5,65.5 C 241.5,66.1667 240.5,66.8333 239.5,67.5C 237.901,67.2322 236.568,67.5655 235.5,68.5C 234.833,68.5 234.167,68.5 233.5,68.5C 236.008,66.446 239.008,65.446 242.5,65.5 Z"/></g>
<g><path style="opacity:1" fill="#6949d0" d="M 242.5,65.5 C 247.866,65.3231 253.2,65.6564 258.5,66.5C 261.555,66.7367 264.221,67.7367 266.5,69.5C 259.635,67.5941 252.635,66.5941 245.5,66.5C 243.565,67.1495 241.565,67.4828 239.5,67.5C 240.5,66.8333 241.5,66.1667 242.5,65.5 Z"/></g>
<g><path style="opacity:0.129" fill="#0e0934" d="M 242.5,65.5 C 250.155,63.9578 257.821,64.4578 265.5,67C 267.584,67.6972 269.251,68.8639 270.5,70.5C 269.167,70.1667 267.833,69.8333 266.5,69.5C 264.221,67.7367 261.555,66.7367 258.5,66.5C 253.2,65.6564 247.866,65.3231 242.5,65.5 Z"/></g>
<g><path style="opacity:0.796" fill="#2d1d67" d="M 367.5,65.5 C 366.833,66.1667 366.167,66.8333 365.5,67.5C 362.994,68.7496 360.327,69.4162 357.5,69.5C 360.37,67.2057 363.703,65.8723 367.5,65.5 Z"/></g>
<g><path style="opacity:0.98" fill="#6946d5" d="M 467.5,65.5 C 467.611,66.1174 467.944,66.6174 468.5,67C 470.473,67.4955 472.473,67.6621 474.5,67.5C 474.5,68.1667 474.5,68.8333 474.5,69.5C 470.257,68.6566 466.09,67.6566 462,66.5C 457.526,67.5618 453.026,68.5618 448.5,69.5C 448.833,68.8333 449.167,68.1667 449.5,67.5C 455.346,65.845 461.346,65.1783 467.5,65.5 Z"/></g>
<g><path style="opacity:1" fill="#6841d7" d="M 29.5,52.5 C 30.1667,52.5 30.8333,52.5 31.5,52.5C 31.3257,59.5352 31.6591,66.5352 32.5,73.5C 33.5,73.5 34.5,73.5 35.5,73.5C 35.5,73.8333 35.5,74.1667 35.5,74.5C 35.5,74.8333 35.5,75.1667 35.5,75.5C 31.542,74.5365 27.8754,73.2032 24.5,71.5C 24.1771,65.31 24.5104,59.31 25.5,53.5C 25.5,59.8333 25.5,66.1667 25.5,72.5C 26.8333,72.5 28.1667,72.5 29.5,72.5C 29.5,65.8333 29.5,59.1667 29.5,52.5 Z"/></g>
<g><path style="opacity:1" fill="#7446f7" d="M 88.5,53.5 C 89.4902,59.6446 89.8235,65.9779 89.5,72.5C 88.1667,72.5 86.8333,72.5 85.5,72.5C 85.5,66.1667 85.5,59.8333 85.5,53.5C 86.5,53.5 87.5,53.5 88.5,53.5 Z"/></g>
<g><path style="opacity:1" fill="#7444fd" d="M 245.5,66.5 C 252.635,66.5941 259.635,67.5941 266.5,69.5C 267.766,71.5666 269.433,73.2333 271.5,74.5C 270.453,77.1242 268.787,77.9575 266.5,77C 268.155,78.4443 268.822,80.2776 268.5,82.5C 264.261,82.2176 260.261,81.0509 256.5,79C 251.511,78.5007 246.511,78.3341 241.5,78.5C 239.606,77.9524 237.94,76.9524 236.5,75.5C 235.668,78.4818 235.501,81.4818 236,84.5C 234.017,83.018 232.184,81.3513 230.5,79.5C 229.702,81.0777 229.202,82.7444 229,84.5C 228.309,82.1088 227.309,82.1088 226,84.5C 226.046,86.3126 225.88,87.9793 225.5,89.5C 224.074,85.0712 225.074,81.2378 228.5,78C 234.146,77.1101 234.479,76.1101 229.5,75C 231.055,73.3542 232.721,73.0209 234.5,74C 235.872,72.7581 236.872,71.2581 237.5,69.5C 239.766,68.6858 242.1,68.1858 244.5,68C 245.056,67.6174 245.389,67.1174 245.5,66.5 Z"/></g>
<g><path style="opacity:1" fill="#7345f7" d="M 390.5,70.5 C 389.048,71.3019 387.382,71.8019 385.5,72C 386.641,72.7412 386.641,73.5745 385.5,74.5C 386.522,75.354 387.355,76.354 388,77.5C 389.86,83.3268 390.86,89.3268 391,95.5C 382.585,96.4832 374.085,96.8166 365.5,96.5C 362.813,96.6641 360.146,96.4974 357.5,96C 353.507,93.792 349.34,91.9587 345,90.5C 344.333,97.8333 344.333,105.167 345,112.5C 345.36,110.579 346.194,108.912 347.5,107.5C 347.833,108.167 348.167,108.833 348.5,109.5C 346.784,111.915 346.284,114.582 347,117.5C 347.667,114.833 348.333,114.833 349,117.5C 349.667,116.167 350.333,114.833 351,113.5C 351.249,116.177 352.249,118.51 354,120.5C 354.333,120.167 354.667,119.833 355,119.5C 355.218,122.426 355.718,125.26 356.5,128C 356.043,128.414 355.709,128.914 355.5,129.5C 357.284,130.606 359.118,130.606 361,129.5C 361.5,129.833 362,130.167 362.5,130.5C 361.624,131.251 360.624,131.751 359.5,132C 361.713,132.626 363.88,132.459 366,131.5C 367.826,132.01 367.993,132.844 366.5,134C 369.051,134.002 371.051,134.836 372.5,136.5C 370.236,135.781 367.903,135.448 365.5,135.5C 362.994,134.25 360.327,133.584 357.5,133.5C 357.027,132.094 356.027,131.427 354.5,131.5C 353.833,130.5 353.167,129.5 352.5,128.5C 351.209,124.903 349.209,121.903 346.5,119.5C 344.975,116.921 343.641,114.254 342.5,111.5C 342.5,104.833 342.5,98.1667 342.5,91.5C 345.086,86.6586 347.42,81.6586 349.5,76.5C 350.833,75.8333 351.833,74.8333 352.5,73.5C 354.749,72.9202 356.415,71.5869 357.5,69.5C 360.327,69.4162 362.994,68.7496 365.5,67.5C 372.515,66.2001 379.515,66.3668 386.5,68C 388.133,68.4796 389.466,69.3129 390.5,70.5 Z M 384.5,82.5 C 387.011,85.6975 388.345,89.3642 388.5,93.5C 380.32,93.423 372.32,93.423 364.5,93.5C 363.119,93.0004 362.453,92.0004 362.5,90.5C 362.846,89.1508 363.179,87.8175 363.5,86.5C 369.532,80.3507 376.532,79.0173 384.5,82.5 Z"/></g>
<g><path style="opacity:0.353" fill="#191143" d="M 387.5,66.5 C 390.481,66.1824 392.815,67.1824 394.5,69.5C 391.937,68.9117 389.604,67.9117 387.5,66.5 Z"/></g>
<g><path style="opacity:0.596" fill="#25145d" d="M 449.5,67.5 C 449.167,68.1667 448.833,68.8333 448.5,69.5C 447.833,69.5 447.167,69.5 446.5,69.5C 446.973,68.0937 447.973,67.427 449.5,67.5 Z"/></g>
<g><path style="opacity:1" fill="#7444fb" d="M 474.5,69.5 C 476.371,69.8588 477.871,70.8588 479,72.5C 480.396,75.0639 481.563,77.7305 482.5,80.5C 482.83,98.6744 482.497,116.674 481.5,134.5C 481.667,118.83 481.5,103.163 481,87.5C 479.181,84.8321 479.015,81.9988 480.5,79C 480.389,77.2785 479.889,77.1118 479,78.5C 476.302,77.7202 473.969,76.3869 472,74.5C 468.903,77.8595 467.736,81.8595 468.5,86.5C 467.833,86.1667 467.167,85.8333 466.5,85.5C 465.599,84.7095 464.932,83.7095 464.5,82.5C 460.038,78.0348 455.038,77.3682 449.5,80.5C 444.095,80.7771 442.095,78.4438 443.5,73.5C 444.5,72.1667 445.5,70.8333 446.5,69.5C 447.167,69.5 447.833,69.5 448.5,69.5C 453.026,68.5618 457.526,67.5618 462,66.5C 466.09,67.6566 470.257,68.6566 474.5,69.5 Z"/></g>
<g><path style="opacity:0.596" fill="#25185b" d="M 25.5,50.5 C 25.5,51.1667 25.5,51.8333 25.5,52.5C 25.5,52.8333 25.5,53.1667 25.5,53.5C 24.5104,59.31 24.1771,65.31 24.5,71.5C 24.1667,71.5 23.8333,71.5 23.5,71.5C 22.4905,66.2039 22.3239,60.8706 23,55.5C 23.3736,53.5087 24.207,51.842 25.5,50.5 Z"/></g>
<g><path style="opacity:1" fill="#a446db" d="M 35.5,52.5 C 36.1667,52.5 36.8333,52.5 37.5,52.5C 38.1299,60.2428 37.4633,67.5762 35.5,74.5C 35.5,74.1667 35.5,73.8333 35.5,73.5C 35.5,66.5 35.5,59.5 35.5,52.5 Z"/></g>
<g><path style="opacity:0.031" fill="#120d36" d="M 394.5,69.5 C 396.027,69.427 397.027,70.0937 397.5,71.5C 395.973,71.573 394.973,70.9063 394.5,69.5 Z"/></g>
<g><path style="opacity:0.314" fill="#12083a" d="M 231.5,69.5 C 230.833,70.5 230.167,71.5 229.5,72.5C 228.167,73.5 226.833,74.5 225.5,75.5C 226.5,72.5 228.5,70.5 231.5,69.5 Z"/></g>
<g><path style="opacity:0.992" fill="#5a3db5" d="M 233.5,68.5 C 234.167,68.5 234.833,68.5 235.5,68.5C 233.777,70.2181 231.777,71.5514 229.5,72.5C 230.167,71.5 230.833,70.5 231.5,69.5C 231.842,68.6618 232.508,68.3284 233.5,68.5 Z"/></g>
<g><path style="opacity:0.459" fill="#230b6a" d="M 438.5,67.5 C 438.833,67.5 439.167,67.5 439.5,67.5C 439.19,70.7131 439.523,73.7131 440.5,76.5C 439.833,77.8333 439.167,77.8333 438.5,76.5C 438.5,73.5 438.5,70.5 438.5,67.5 Z"/></g>
<g><path style="opacity:0.043" fill="#090020" d="M 439.5,67.5 C 440.167,69.8333 440.833,72.1667 441.5,74.5C 441.167,75.1667 440.833,75.8333 440.5,76.5C 439.523,73.7131 439.19,70.7131 439.5,67.5 Z"/></g>
<g><path style="opacity:0.404" fill="#1c1044" d="M 446.5,69.5 C 445.5,70.8333 444.5,72.1667 443.5,73.5C 443.167,73.5 442.833,73.5 442.5,73.5C 442.833,71.1667 444.167,69.8333 446.5,69.5 Z"/></g>
<g><path style="opacity:1" fill="#f051bc" d="M 77.5,51.5 C 77.175,59.0191 77.5084,66.3524 78.5,73.5C 77.9473,75.5518 76.9473,75.8852 75.5,74.5C 74.9522,72.4677 73.6188,71.4677 71.5,71.5C 71.1065,67.5942 69.9398,63.9276 68,60.5C 67.3292,59.7476 66.4959,59.4142 65.5,59.5C 65.5,59.1667 65.5,58.8333 65.5,58.5C 65.2786,57.2652 64.6119,56.2652 63.5,55.5C 57.9997,53.8148 52.9997,54.8148 48.5,58.5C 48.5849,62.3904 48.7516,66.3904 49,70.5C 49.9487,72.0931 51.1154,73.4264 52.5,74.5C 52.4142,75.4959 52.7476,76.3292 53.5,77C 53,77.1667 52.5,77.3333 52,77.5C 50.6667,76.1667 49.3333,74.8333 48,73.5C 47.228,73.6448 46.5613,73.9781 46,74.5C 45.7978,72.7444 45.2978,71.0777 44.5,69.5C 43.3523,71.1487 42.019,72.6487 40.5,74C 41.3366,75.0113 41.67,76.1779 41.5,77.5C 39.3146,77.2964 37.3146,76.6298 35.5,75.5C 35.5,75.1667 35.5,74.8333 35.5,74.5C 37.4633,67.5762 38.1299,60.2428 37.5,52.5C 39.4258,51.7577 41.2591,50.7577 43,49.5C 43.2189,50.938 43.7189,52.2713 44.5,53.5C 45.0722,51.0829 46.0722,48.9162 47.5,47C 51.4294,45.8576 55.4294,45.0243 59.5,44.5C 62.9146,44.9567 66.2479,45.6234 69.5,46.5C 69.2965,48.3904 69.9632,49.8904 71.5,51C 73.6023,50.744 75.6023,50.9107 77.5,51.5 Z"/></g>
<g><path style="opacity:0.039" fill="#220214" d="M 52.5,59.5 C 51.6758,62.7644 51.3424,66.0977 51.5,69.5C 50.3622,66.6965 50.1955,63.6965 51,60.5C 51.3826,59.944 51.8826,59.6107 52.5,59.5 Z"/></g>
<g><path style="opacity:0.461" fill="#531c3f" d="M 63.5,58.5 C 64.1667,58.5 64.8333,58.5 65.5,58.5C 65.5,58.8333 65.5,59.1667 65.5,59.5C 68.1542,62.8762 68.1542,66.2096 65.5,69.5C 65.2606,67.5328 65.5939,65.6995 66.5,64C 65.3606,62.2196 64.3606,60.3863 63.5,58.5 Z"/></g>
<g><path style="opacity:0.106" fill="#340623" d="M 61.5,57.5 C 58.7628,57.4013 56.0961,57.7347 53.5,58.5C 54.4919,56.9735 55.9919,56.3068 58,56.5C 59.3847,56.5143 60.5514,56.8476 61.5,57.5 Z"/></g>
<g><path style="opacity:0.829" fill="#48338f" d="M 283.5,66.5 C 286.833,66.5 290.167,66.5 293.5,66.5C 290.713,67.4767 287.713,67.81 284.5,67.5C 284.5,71.5 284.5,75.5 284.5,79.5C 287.713,79.19 290.713,79.5233 293.5,80.5C 290.167,80.5 286.833,80.5 283.5,80.5C 282.167,75.8333 282.167,71.1667 283.5,66.5 Z"/></g>
<g><path style="opacity:0.722" fill="#2b1b65" d="M 357.5,69.5 C 356.415,71.5869 354.749,72.9202 352.5,73.5C 353.585,71.4131 355.251,70.0798 357.5,69.5 Z"/></g>
<g><path style="opacity:0.447" fill="#221036" d="M 23.5,71.5 C 23.8333,71.5 24.1667,71.5 24.5,71.5C 27.8754,73.2032 31.542,74.5365 35.5,75.5C 36.4408,77.0495 37.1075,78.7162 37.5,80.5C 35.6933,77.7137 33.1933,75.7137 30,74.5C 26.9201,75.696 24.4201,74.8626 22.5,72C 22.7284,71.6012 23.0618,71.4346 23.5,71.5 Z"/></g>
<g><path style="opacity:1" fill="#7444fc" d="M 437.5,68.5 C 437.194,71.3854 437.527,74.0521 438.5,76.5C 439.167,77.8333 439.833,77.8333 440.5,76.5C 440.833,75.8333 441.167,75.1667 441.5,74.5C 441.5,73.8333 441.833,73.5 442.5,73.5C 442.833,73.5 443.167,73.5 443.5,73.5C 442.095,78.4438 444.095,80.7771 449.5,80.5C 449.5,80.8333 449.5,81.1667 449.5,81.5C 448.127,81.3433 446.793,81.51 445.5,82C 443.915,84.0693 442.581,86.236 441.5,88.5C 440.85,88.8039 440.183,89.1373 439.5,89.5C 438.501,104.485 438.167,119.485 438.5,134.5C 433.5,134.5 428.5,134.5 423.5,134.5C 423.5,112.5 423.5,90.5 423.5,68.5C 428.167,68.5 432.833,68.5 437.5,68.5 Z"/></g>
<g><path style="opacity:0.077" fill="#1a1343" d="M 83.5,73.5 C 85.8333,73.5 88.1667,73.5 90.5,73.5C 87.1912,75.3699 83.5246,76.3699 79.5,76.5C 79.5,75.8333 79.5,75.1667 79.5,74.5C 81.099,74.7678 82.4324,74.4345 83.5,73.5 Z"/></g>
<g><path style="opacity:0.82" fill="#241950" d="M 270.5,70.5 C 277.428,73.5761 277.762,76.9095 271.5,80.5C 272.146,78.8439 272.813,77.1772 273.5,75.5C 272.908,73.5775 271.908,71.9108 270.5,70.5 Z"/></g>
<g><path style="opacity:0.298" fill="#13053b" d="M 352.5,73.5 C 351.833,74.8333 350.833,75.8333 349.5,76.5C 349.5,74.5 350.5,73.5 352.5,73.5 Z"/></g>
<g><path style="opacity:1" fill="#6943d6" d="M 367.5,65.5 C 367.833,65.5 368.167,65.5 368.5,65.5C 374.869,65.347 381.203,65.6803 387.5,66.5C 389.604,67.9117 391.937,68.9117 394.5,69.5C 394.973,70.9063 395.973,71.573 397.5,71.5C 398.5,71.8333 399.167,72.5 399.5,73.5C 399.5,74.1667 399.5,74.8333 399.5,75.5C 398.265,75.7214 397.265,76.3881 396.5,77.5C 395.948,75.9974 395.948,74.3307 396.5,72.5C 394.282,72.3862 392.282,71.7196 390.5,70.5C 389.466,69.3129 388.133,68.4796 386.5,68C 379.515,66.3668 372.515,66.2001 365.5,67.5C 366.167,66.8333 366.833,66.1667 367.5,65.5 Z"/></g>
<g><path style="opacity:0.686" fill="#201254" d="M 399.5,73.5 C 401.587,74.5846 402.92,76.2512 403.5,78.5C 402.167,77.5 400.833,76.5 399.5,75.5C 399.5,74.8333 399.5,74.1667 399.5,73.5 Z"/></g>
<g><path style="opacity:1" fill="#7444fe" d="M 481.5,134.5 C 477.167,134.5 472.833,134.5 468.5,134.5C 468.5,118.5 468.5,102.5 468.5,86.5C 467.736,81.8595 468.903,77.8595 472,74.5C 473.969,76.3869 476.302,77.7202 479,78.5C 479.889,77.1118 480.389,77.2785 480.5,79C 479.015,81.9988 479.181,84.8321 481,87.5C 481.5,103.163 481.667,118.83 481.5,134.5 Z"/></g>
<g><path style="opacity:1" fill="#aa3f89" d="M 78.5,73.5 C 79.1667,73.5 79.5,73.8333 79.5,74.5C 79.5,75.1667 79.5,75.8333 79.5,76.5C 77.7807,79.2195 75.4474,81.2195 72.5,82.5C 72.5,81.1667 72.5,79.8333 72.5,78.5C 73.675,78.719 74.675,78.3857 75.5,77.5C 74.3473,76.3132 74.3473,75.3132 75.5,74.5C 76.9473,75.8852 77.9473,75.5518 78.5,73.5 Z"/></g>
<g><path style="opacity:0.894" fill="#6240c7" d="M 266.5,69.5 C 267.833,69.8333 269.167,70.1667 270.5,70.5C 271.908,71.9108 272.908,73.5775 273.5,75.5C 272.813,77.1772 272.146,78.8439 271.5,80.5C 270.167,80.5 269.5,81.1667 269.5,82.5C 268.196,85.5694 266.196,86.5694 263.5,85.5C 262.738,83.7376 261.404,82.7376 259.5,82.5C 258.391,82.4431 257.391,82.1098 256.5,81.5C 254.193,79.9532 251.527,79.2865 248.5,79.5C 246.079,79.56 243.746,79.8934 241.5,80.5C 241.5,79.8333 241.5,79.1667 241.5,78.5C 246.511,78.3341 251.511,78.5007 256.5,79C 260.261,81.0509 264.261,82.2176 268.5,82.5C 268.822,80.2776 268.155,78.4443 266.5,77C 268.787,77.9575 270.453,77.1242 271.5,74.5C 269.433,73.2333 267.766,71.5666 266.5,69.5 Z"/></g>
<g><path style="opacity:1" fill="#6f4bda" d="M 330.5,68.5 C 330.833,68.5 331.167,68.5 331.5,68.5C 331.5,72.5 331.5,76.5 331.5,80.5C 324.833,80.5 318.167,80.5 311.5,80.5C 317.412,78.5437 323.745,77.8771 330.5,78.5C 330.5,75.1667 330.5,71.8333 330.5,68.5 Z"/></g>
<g><path style="opacity:1" fill="#ec52b8" d="M 65.5,59.5 C 66.4959,59.4142 67.3292,59.7476 68,60.5C 69.9398,63.9276 71.1065,67.5942 71.5,71.5C 73.6188,71.4677 74.9522,72.4677 75.5,74.5C 74.3473,75.3132 74.3473,76.3132 75.5,77.5C 74.675,78.3857 73.675,78.719 72.5,78.5C 72.5,79.8333 72.5,81.1667 72.5,82.5C 69.1126,82.788 65.9459,83.788 63,85.5C 62.1669,88.478 63.0003,90.8113 65.5,92.5C 66.5794,94.543 68.246,95.8763 70.5,96.5C 70.7376,98.4044 71.7376,99.7377 73.5,100.5C 73.5,101.167 73.5,101.833 73.5,102.5C 70.9249,103.728 68.5916,105.395 66.5,107.5C 65.8076,106.975 65.3076,106.308 65,105.5C 63.1978,106.789 62.0312,108.456 61.5,110.5C 60.8333,110.5 60.1667,110.5 59.5,110.5C 59.573,108.973 58.9063,107.973 57.5,107.5C 56.5,107.167 55.8333,106.5 55.5,105.5C 54.8645,103.205 53.5311,101.539 51.5,100.5C 49.4024,94.3744 46.569,94.0411 43,99.5C 40.5114,103.405 40.0114,107.405 41.5,111.5C 42.5375,112.93 43.2041,114.597 43.5,116.5C 42.5041,116.586 41.6708,116.252 41,115.5C 39.1539,112.431 38.1539,109.098 38,105.5C 38.6335,110.681 36.4669,113.681 31.5,114.5C 32.7593,111.634 33.7593,108.634 34.5,105.5C 33.1779,105.67 32.0113,105.337 31,104.5C 30.2291,101.81 29.3958,99.1436 28.5,96.5C 27.914,96.7093 27.414,97.0426 27,97.5C 26.7883,100.758 26.2883,103.924 25.5,107C 26.2529,108.487 27.0862,108.654 28,107.5C 29.3454,109.83 29.5121,112.163 28.5,114.5C 26.6696,112.973 25.6696,113.473 25.5,116C 27.0959,118.064 28.5959,120.231 30,122.5C 30.3333,122.167 30.6667,121.833 31,121.5C 31.5396,123.135 31.0396,124.468 29.5,125.5C 32.2096,129.136 35.3763,129.469 39,126.5C 39.7504,127.126 40.5838,127.626 41.5,128C 40.2412,128.923 38.9079,129.757 37.5,130.5C 38.1925,131.518 38.8592,132.518 39.5,133.5C 38.1667,133.5 36.8333,133.5 35.5,133.5C 34.7377,131.738 33.4044,130.738 31.5,130.5C 30.5,128.833 29.1667,127.5 27.5,126.5C 27.573,124.973 26.9063,123.973 25.5,123.5C 24.6618,123.158 24.3284,122.492 24.5,121.5C 22.9309,113.051 23.2643,104.718 25.5,96.5C 28.1667,94.5 30.5,92.1667 32.5,89.5C 34.0269,89.573 35.0269,88.9063 35.5,87.5C 41.1155,86.3342 41.7821,84.0009 37.5,80.5C 37.1075,78.7162 36.4408,77.0495 35.5,75.5C 37.3146,76.6298 39.3146,77.2964 41.5,77.5C 41.67,76.1779 41.3366,75.0113 40.5,74C 42.019,72.6487 43.3523,71.1487 44.5,69.5C 45.2978,71.0777 45.7978,72.7444 46,74.5C 46.5613,73.9781 47.228,73.6448 48,73.5C 49.3333,74.8333 50.6667,76.1667 52,77.5C 52.5,77.3333 53,77.1667 53.5,77C 52.7476,76.3292 52.4142,75.4959 52.5,74.5C 54.1042,75.287 54.7709,76.6203 54.5,78.5C 57.0336,78.7409 58.7002,77.7409 59.5,75.5C 62.935,74.8084 64.935,72.8084 65.5,69.5C 68.1542,66.2096 68.1542,62.8762 65.5,59.5 Z"/></g>
<g><path style="opacity:0.314" fill="#4f163c" d="M 65.5,69.5 C 64.935,72.8084 62.935,74.8084 59.5,75.5C 61.5428,73.4914 63.5428,71.4914 65.5,69.5 Z"/></g>
<g><path style="opacity:0.757" fill="#4b3499" d="M 464.5,82.5 C 463.833,82.5 463.167,82.5 462.5,82.5C 458.881,81.7564 455.215,81.423 451.5,81.5C 450.833,81.5 450.167,81.5 449.5,81.5C 449.5,81.1667 449.5,80.8333 449.5,80.5C 455.038,77.3682 460.038,78.0348 464.5,82.5 Z"/></g>
<g><path style="opacity:0.853" fill="#362579" d="M 189.5,66.5 C 195.5,66.5 201.5,66.5 207.5,66.5C 208.663,89.663 208.83,112.996 208,136.5C 201.667,137.833 195.333,137.833 189,136.5C 188.17,112.996 188.337,89.663 189.5,66.5 Z"/></g>
<g><path style="opacity:1" fill="#734aea" d="M 190.5,68.5 C 195.64,67.5119 200.974,67.1786 206.5,67.5C 206.5,89.1667 206.5,110.833 206.5,132.5C 205.503,111.34 205.169,90.0065 205.5,68.5C 200.5,68.5 195.5,68.5 190.5,68.5 Z"/></g>
<g><path style="opacity:1" fill="#7444fd" d="M 190.5,68.5 C 195.5,68.5 200.5,68.5 205.5,68.5C 205.169,90.0065 205.503,111.34 206.5,132.5C 206.5,133.5 206.5,134.5 206.5,135.5C 201.238,135.805 196.072,135.471 191,134.5C 190.5,112.503 190.333,90.5025 190.5,68.5 Z"/></g>
<g><path style="opacity:0.247" fill="#170f44" d="M 256.5,81.5 C 251.777,80.0068 247.11,80.1735 242.5,82C 240.771,83.7889 240.104,85.9556 240.5,88.5C 239.074,85.7008 239.408,83.0342 241.5,80.5C 243.746,79.8934 246.079,79.56 248.5,79.5C 251.527,79.2865 254.193,79.9532 256.5,81.5 Z"/></g>
<g><path style="opacity:0.74" fill="#402c87" d="M 421.5,66.5 C 427.358,66.1778 433.025,66.5111 438.5,67.5C 438.5,70.5 438.5,73.5 438.5,76.5C 437.527,74.0521 437.194,71.3854 437.5,68.5C 432.695,67.5128 427.695,67.1795 422.5,67.5C 422.5,90.1667 422.5,112.833 422.5,135.5C 428.026,135.821 433.36,135.488 438.5,134.5C 438.167,119.485 438.501,104.485 439.5,89.5C 440.183,89.1373 440.85,88.8039 441.5,88.5C 441.5,89.1667 441.5,89.8333 441.5,90.5C 441.5,90.8333 441.5,91.1667 441.5,91.5C 440.883,91.6107 440.383,91.944 440,92.5C 439.5,107.163 439.333,121.83 439.5,136.5C 433.5,136.5 427.5,136.5 421.5,136.5C 420.19,113.137 420.19,89.8032 421.5,66.5 Z"/></g>
<g><path style="opacity:1" fill="#704ae6" d="M 437.5,68.5 C 432.833,68.5 428.167,68.5 423.5,68.5C 423.5,90.5 423.5,112.5 423.5,134.5C 428.5,134.5 433.5,134.5 438.5,134.5C 433.36,135.488 428.026,135.821 422.5,135.5C 422.5,112.833 422.5,90.1667 422.5,67.5C 427.695,67.1795 432.695,67.5128 437.5,68.5 Z"/></g>
<g><path style="opacity:0.212" fill="#160c46" d="M 271.5,80.5 C 271.167,81.5 270.5,82.1667 269.5,82.5C 269.5,81.1667 270.167,80.5 271.5,80.5 Z"/></g>
<g><path style="opacity:1" fill="#7047e7" d="M 386.5,82.5 C 385.833,82.5 385.167,82.5 384.5,82.5C 384.047,81.5416 383.381,80.7083 382.5,80C 376.482,78.8039 370.815,79.6373 365.5,82.5C 364.37,83.6223 363.703,84.9557 363.5,86.5C 362.272,87.3065 361.272,88.3065 360.5,89.5C 361.851,85.6131 362.851,81.6131 363.5,77.5C 370.143,78.1653 376.809,78.6653 383.5,79C 384.71,80.0391 385.71,81.2058 386.5,82.5 Z"/></g>
<g><path style="opacity:0.031" fill="#0f0b3a" d="M 384.5,82.5 C 376.532,79.0173 369.532,80.3507 363.5,86.5C 363.703,84.9557 364.37,83.6223 365.5,82.5C 370.815,79.6373 376.482,78.8039 382.5,80C 383.381,80.7083 384.047,81.5416 384.5,82.5 Z"/></g>
<g><path style="opacity:0.706" fill="#1e134f" d="M 403.5,78.5 C 405.472,81.0836 406.472,84.0836 406.5,87.5C 406.167,87.5 405.833,87.5 405.5,87.5C 404.539,84.5739 403.873,81.5739 403.5,78.5 Z"/></g>
<g><path style="opacity:0.255" fill="#100032" d="M 259.5,82.5 C 261.404,82.7376 262.738,83.7376 263.5,85.5C 261.596,85.2624 260.262,84.2624 259.5,82.5 Z"/></g>
<g><path style="opacity:0.137" fill="#2c061b" d="M 37.5,80.5 C 41.7821,84.0009 41.1155,86.3342 35.5,87.5C 36.5736,86.1154 37.9069,84.9487 39.5,84C 38.1772,83.1841 37.5106,82.0174 37.5,80.5 Z"/></g>
<g><path style="opacity:1" fill="#7345f8" d="M 245.5,66.5 C 245.389,67.1174 245.056,67.6174 244.5,68C 242.1,68.1858 239.766,68.6858 237.5,69.5C 236.872,71.2581 235.872,72.7581 234.5,74C 232.721,73.0209 231.055,73.3542 229.5,75C 234.479,76.1101 234.146,77.1101 228.5,78C 225.074,81.2378 224.074,85.0712 225.5,89.5C 225.88,87.9793 226.046,86.3126 226,84.5C 227.309,82.1088 228.309,82.1088 229,84.5C 229.202,82.7444 229.702,81.0777 230.5,79.5C 232.184,81.3513 234.017,83.018 236,84.5C 235.501,81.4818 235.668,78.4818 236.5,75.5C 237.94,76.9524 239.606,77.9524 241.5,78.5C 241.5,79.1667 241.5,79.8333 241.5,80.5C 239.408,83.0342 239.074,85.7008 240.5,88.5C 240.5,89.1667 240.5,89.8333 240.5,90.5C 244.02,93.7808 248.353,95.1142 253.5,94.5C 254.833,94.5 256.167,94.5 257.5,94.5C 258.671,95.3446 260.005,96.0113 261.5,96.5C 263.033,98.2451 265.033,99.2451 267.5,99.5C 269.483,100.471 271.483,101.471 273.5,102.5C 273.427,104.027 274.094,105.027 275.5,105.5C 276.442,110.805 276.609,116.139 276,121.5C 275.617,122.056 275.117,122.389 274.5,122.5C 274.5,121.167 274.5,119.833 274.5,118.5C 270.96,118.806 269.626,117.473 270.5,114.5C 267.285,113.552 266.952,112.219 269.5,110.5C 267.602,109.266 265.935,109.599 264.5,111.5C 260.519,110.494 260.519,109.494 264.5,108.5C 262.503,106.802 260.503,106.468 258.5,107.5C 257.584,107.982 256.584,108.315 255.5,108.5C 251.754,106.747 247.754,106.08 243.5,106.5C 238.128,105.31 233.128,103.31 228.5,100.5C 228.144,98.8102 227.144,97.8102 225.5,97.5C 222.837,90.1473 222.837,82.814 225.5,75.5C 226.833,74.5 228.167,73.5 229.5,72.5C 231.777,71.5514 233.777,70.2181 235.5,68.5C 236.568,67.5655 237.901,67.2322 239.5,67.5C 241.565,67.4828 243.565,67.1495 245.5,66.5 Z"/></g>
<g><path style="opacity:0.753" fill="#2b1a61" d="M 349.5,76.5 C 347.42,81.6586 345.086,86.6586 342.5,91.5C 342.976,85.5518 345.309,80.5518 349.5,76.5 Z"/></g>
<g><path style="opacity:0.898" fill="#b84992" d="M 72.5,82.5 C 71.1007,83.8897 69.4341,84.8897 67.5,85.5C 63.4366,85.616 62.7699,86.9493 65.5,89.5C 65.5,90.5 65.5,91.5 65.5,92.5C 63.0003,90.8113 62.1669,88.478 63,85.5C 65.9459,83.788 69.1126,82.788 72.5,82.5 Z"/></g>
<g><path style="opacity:0.463" fill="#1f144a" d="M 225.5,75.5 C 222.837,82.814 222.837,90.1473 225.5,97.5C 220.281,90.2206 220.281,82.8872 225.5,75.5 Z"/></g>
<g><path style="opacity:0.208" fill="#1d1249" d="M 449.5,81.5 C 450.167,81.5 450.833,81.5 451.5,81.5C 446.92,83.0783 443.587,86.0783 441.5,90.5C 441.5,89.8333 441.5,89.1667 441.5,88.5C 442.581,86.236 443.915,84.0693 445.5,82C 446.793,81.51 448.127,81.3433 449.5,81.5 Z"/></g>
<g><path style="opacity:0.031" fill="#2a0719" d="M 67.5,85.5 C 66.1938,86.4674 65.5271,87.8007 65.5,89.5C 62.7699,86.9493 63.4366,85.616 67.5,85.5 Z"/></g>
<g><path style="opacity:0.553" fill="#52163d" d="M 35.5,87.5 C 35.0269,88.9063 34.0269,89.573 32.5,89.5C 32.9731,88.0937 33.9731,87.427 35.5,87.5 Z"/></g>
<g><path style="opacity:0.316" fill="#1a0d48" d="M 331.5,66.5 C 332.487,71.3054 332.821,76.3054 332.5,81.5C 325.91,81.189 319.41,81.5223 313,82.5C 312.279,94.1886 312.445,105.855 313.5,117.5C 311.521,105.88 310.854,93.8799 311.5,81.5C 311.5,81.1667 311.5,80.8333 311.5,80.5C 318.167,80.5 324.833,80.5 331.5,80.5C 331.5,76.5 331.5,72.5 331.5,68.5C 331.5,67.8333 331.5,67.1667 331.5,66.5 Z"/></g>
<g><path style="opacity:1" fill="#6442ca" d="M 240.5,90.5 C 244.804,92.2705 249.137,93.6039 253.5,94.5C 248.353,95.1142 244.02,93.7808 240.5,90.5 Z"/></g>
<g><path style="opacity:0.463" fill="#200c5f" d="M 293.5,80.5 C 294.331,93.6604 294.831,106.994 295,120.5C 295.232,121.737 295.732,122.737 296.5,123.5C 296.957,126.406 297.957,129.072 299.5,131.5C 296.463,128.94 294.629,125.607 294,121.5C 293.501,117.848 293.335,114.182 293.5,110.5C 293.5,100.5 293.5,90.5 293.5,80.5 Z"/></g>
<g><path style="opacity:0.486" fill="#481538" d="M 32.5,89.5 C 30.5,92.1667 28.1667,94.5 25.5,96.5C 26.8333,93.1667 29.1667,90.8333 32.5,89.5 Z"/></g>
<g><path style="opacity:0.957" fill="#752d5c" d="M 65.5,89.5 C 67.9,91.2964 69.5667,93.6298 70.5,96.5C 68.246,95.8763 66.5794,94.543 65.5,92.5C 65.5,91.5 65.5,90.5 65.5,89.5 Z"/></g>
<g><path style="opacity:0.137" fill="#0d0532" d="M 240.5,88.5 C 245.97,91.2347 251.637,93.2347 257.5,94.5C 256.167,94.5 254.833,94.5 253.5,94.5C 249.137,93.6039 244.804,92.2705 240.5,90.5C 240.5,89.8333 240.5,89.1667 240.5,88.5 Z"/></g>
<g><path style="opacity:1" fill="#7444fc" d="M 365.5,96.5 C 364.064,98.083 362.398,99.583 360.5,101C 361.833,101.667 361.833,102.333 360.5,103C 361,103.167 361.5,103.333 362,103.5C 363.678,101.718 365.511,101.385 367.5,102.5C 366.398,103.176 365.398,103.842 364.5,104.5C 362.585,104.216 360.919,104.549 359.5,105.5C 359.099,109.651 360.433,112.985 363.5,115.5C 364.684,118.849 367.017,121.015 370.5,122C 376.436,122.943 382.103,122.443 387.5,120.5C 388.552,120.649 389.552,120.483 390.5,120C 391.52,118.444 392.853,117.278 394.5,116.5C 396.569,116.824 396.902,117.658 395.5,119C 397.207,119.195 398.874,119.195 400.5,119C 397.695,121.687 398.029,122.687 401.5,122C 400.304,121.346 400.304,120.846 401.5,120.5C 402.631,122.074 402.798,123.741 402,125.5C 399.7,127.067 397.2,128.233 394.5,129C 395.056,129.383 395.389,129.883 395.5,130.5C 394.63,132.274 393.297,133.607 391.5,134.5C 385.3,136.004 378.967,136.67 372.5,136.5C 371.051,134.836 369.051,134.002 366.5,134C 367.993,132.844 367.826,132.01 366,131.5C 363.88,132.459 361.713,132.626 359.5,132C 360.624,131.751 361.624,131.251 362.5,130.5C 362,130.167 361.5,129.833 361,129.5C 359.118,130.606 357.284,130.606 355.5,129.5C 355.709,128.914 356.043,128.414 356.5,128C 355.718,125.26 355.218,122.426 355,119.5C 354.667,119.833 354.333,120.167 354,120.5C 352.249,118.51 351.249,116.177 351,113.5C 350.333,114.833 349.667,116.167 349,117.5C 348.333,114.833 347.667,114.833 347,117.5C 346.284,114.582 346.784,111.915 348.5,109.5C 348.167,108.833 347.833,108.167 347.5,107.5C 346.194,108.912 345.36,110.579 345,112.5C 344.333,105.167 344.333,97.8333 345,90.5C 349.34,91.9587 353.507,93.792 357.5,96C 360.146,96.4974 362.813,96.6641 365.5,96.5 Z"/></g>
<g><path style="opacity:0.146" fill="#0b063d" d="M 384.5,82.5 C 385.167,82.5 385.833,82.5 386.5,82.5C 388.97,86.095 389.97,90.095 389.5,94.5C 379.833,94.5 370.167,94.5 360.5,94.5C 360.5,92.8333 360.5,91.1667 360.5,89.5C 361.272,88.3065 362.272,87.3065 363.5,86.5C 363.179,87.8175 362.846,89.1508 362.5,90.5C 362.453,92.0004 363.119,93.0004 364.5,93.5C 372.32,93.423 380.32,93.423 388.5,93.5C 388.345,89.3642 387.011,85.6975 384.5,82.5 Z"/></g>
<g><path style="opacity:0.067" fill="#0c0737" d="M 257.5,94.5 C 259.898,94.2594 261.898,94.9261 263.5,96.5C 262.833,96.5 262.167,96.5 261.5,96.5C 260.005,96.0113 258.671,95.3446 257.5,94.5 Z"/></g>
<g><path style="opacity:0.31" fill="#100339" d="M 406.5,87.5 C 407.23,91.0306 407.896,94.6973 408.5,98.5C 407.933,100.982 407.266,103.316 406.5,105.5C 406.5,99.5 406.5,93.5 406.5,87.5 Z"/></g>
<g><path style="opacity:0.033" fill="#05001d" d="M 283.5,80.5 C 286.833,80.5 290.167,80.5 293.5,80.5C 293.5,90.5 293.5,100.5 293.5,110.5C 292.506,101.014 292.173,91.3478 292.5,81.5C 289.287,81.81 286.287,81.4767 283.5,80.5 Z"/></g>
<g><path style="opacity:1" fill="#7444fc" d="M 390.5,70.5 C 392.282,71.7196 394.282,72.3862 396.5,72.5C 395.948,74.3307 395.948,75.9974 396.5,77.5C 397.265,76.3881 398.265,75.7214 399.5,75.5C 400.833,76.5 402.167,77.5 403.5,78.5C 403.873,81.5739 404.539,84.5739 405.5,87.5C 405.553,93.1956 405.22,98.8623 404.5,104.5C 391.167,104.5 377.833,104.5 364.5,104.5C 365.398,103.842 366.398,103.176 367.5,102.5C 365.511,101.385 363.678,101.718 362,103.5C 361.5,103.333 361,103.167 360.5,103C 361.833,102.333 361.833,101.667 360.5,101C 362.398,99.583 364.064,98.083 365.5,96.5C 374.085,96.8166 382.585,96.4832 391,95.5C 390.86,89.3268 389.86,83.3268 388,77.5C 387.355,76.354 386.522,75.354 385.5,74.5C 386.641,73.5745 386.641,72.7412 385.5,72C 387.382,71.8019 389.048,71.3019 390.5,70.5 Z"/></g>
<g><path style="opacity:1" fill="#704ae6" d="M 482.5,80.5 C 483.461,82.2646 483.795,84.2646 483.5,86.5C 483.5,102.833 483.5,119.167 483.5,135.5C 478.167,135.5 472.833,135.5 467.5,135.5C 467.805,118.786 467.471,102.119 466.5,85.5C 467.167,85.8333 467.833,86.1667 468.5,86.5C 468.5,102.5 468.5,118.5 468.5,134.5C 472.833,134.5 477.167,134.5 481.5,134.5C 482.497,116.674 482.83,98.6744 482.5,80.5 Z"/></g>
<g><path style="opacity:0.357" fill="#1a0d46" d="M 474.5,67.5 C 480.439,70.685 483.939,75.685 485,82.5C 486.772,100.62 486.939,118.62 485.5,136.5C 480.147,137.211 474.814,137.878 469.5,138.5C 468.833,138.167 468.167,137.833 467.5,137.5C 466.667,121.51 466.167,105.51 466,89.5C 465.347,86.8608 464.18,84.5274 462.5,82.5C 463.167,82.5 463.833,82.5 464.5,82.5C 464.932,83.7095 465.599,84.7095 466.5,85.5C 467.471,102.119 467.805,118.786 467.5,135.5C 472.975,136.489 478.642,136.822 484.5,136.5C 484.83,119.658 484.497,102.992 483.5,86.5C 483.795,84.2646 483.461,82.2646 482.5,80.5C 481.563,77.7305 480.396,75.0639 479,72.5C 477.871,70.8588 476.371,69.8588 474.5,69.5C 474.5,68.8333 474.5,68.1667 474.5,67.5 Z"/></g>
<g><path style="opacity:0.955" fill="#694bc6" d="M 483.5,86.5 C 484.497,102.992 484.83,119.658 484.5,136.5C 478.642,136.822 472.975,136.489 467.5,135.5C 472.833,135.5 478.167,135.5 483.5,135.5C 483.5,119.167 483.5,102.833 483.5,86.5 Z"/></g>
<g><path style="opacity:0.992" fill="#573baa" d="M 261.5,96.5 C 262.167,96.5 262.833,96.5 263.5,96.5C 264.791,96.2627 265.791,96.596 266.5,97.5C 266.833,98.1667 267.167,98.8333 267.5,99.5C 265.033,99.2451 263.033,98.2451 261.5,96.5 Z"/></g>
<g><path style="opacity:0.42" fill="#140942" d="M 342.5,91.5 C 342.5,98.1667 342.5,104.833 342.5,111.5C 339.833,104.833 339.833,98.1667 342.5,91.5 Z"/></g>
<g><path style="opacity:0.031" fill="#330b26" d="M 51.5,100.5 C 50.1851,99.5244 48.8518,98.5244 47.5,97.5C 42.989,101.017 40.989,105.684 41.5,111.5C 40.0114,107.405 40.5114,103.405 43,99.5C 46.569,94.0411 49.4024,94.3744 51.5,100.5 Z"/></g>
<g><path style="opacity:0.392" fill="#461334" d="M 70.5,96.5 C 72.2624,97.2623 73.2624,98.5956 73.5,100.5C 71.7376,99.7377 70.7376,98.4044 70.5,96.5 Z"/></g>
<g><path style="opacity:0.165" fill="#130d3d" d="M 266.5,97.5 C 269.719,98.0693 272.052,99.736 273.5,102.5C 271.483,101.471 269.483,100.471 267.5,99.5C 267.167,98.8333 266.833,98.1667 266.5,97.5 Z"/></g>
<g><path style="opacity:0.157" fill="#2c0c21" d="M 83.5,89.5 C 88.3477,88.1863 93.3477,88.1863 98.5,89.5C 99.0219,90.6074 99.3552,91.7741 99.5,93C 99.0396,98.4087 98.0396,103.575 96.5,108.5C 97.2597,102.196 97.593,95.8627 97.5,89.5C 92.8333,89.5 88.1667,89.5 83.5,89.5 Z"/></g>
<g><path style="opacity:0.275" fill="#1f1349" d="M 225.5,97.5 C 227.144,97.8102 228.144,98.8102 228.5,100.5C 226.856,100.19 225.856,99.1898 225.5,97.5 Z"/></g>
<g><path style="opacity:0.635" fill="#5e1e43" d="M 73.5,100.5 C 74.9063,100.973 75.573,101.973 75.5,103.5C 74.8333,103.167 74.1667,102.833 73.5,102.5C 73.5,101.833 73.5,101.167 73.5,100.5 Z"/></g>
<g><path style="opacity:0.639" fill="#1f144d" d="M 228.5,100.5 C 233.128,103.31 238.128,105.31 243.5,106.5C 247.469,107.343 251.469,108.509 255.5,110C 256.056,110.383 256.389,110.883 256.5,111.5C 249.462,109.858 242.462,108.025 235.5,106C 232.405,105.065 230.071,103.231 228.5,100.5 Z"/></g>
<g><path style="opacity:0.039" fill="#39112b" d="M 51.5,100.5 C 53.5311,101.539 54.8645,103.205 55.5,105.5C 53.457,104.421 52.1237,102.754 51.5,100.5 Z"/></g>
<g><path style="opacity:1" fill="#f051ba" d="M 88.5,121.5 C 86.1266,122.899 83.6266,124.232 81,125.5C 80.2904,124.027 79.1238,123.36 77.5,123.5C 77.2965,125.39 77.9632,126.89 79.5,128C 74.7533,128.454 71.0866,126.62 68.5,122.5C 69.3094,120.929 69.6427,119.262 69.5,117.5C 70.675,117.719 71.675,117.386 72.5,116.5C 69.6815,114.718 67.6815,112.218 66.5,109C 64.6698,108.818 63.0031,109.318 61.5,110.5C 62.0312,108.456 63.1978,106.789 65,105.5C 65.3076,106.308 65.8076,106.975 66.5,107.5C 68.5916,105.395 70.9249,103.728 73.5,102.5C 74.1667,102.833 74.8333,103.167 75.5,103.5C 75.5,104.167 75.5,104.833 75.5,105.5C 75.5,106.833 75.5,108.167 75.5,109.5C 77.4835,109.383 79.1502,110.05 80.5,111.5C 82.3173,109.584 83.484,107.251 84,104.5C 84.499,100.179 84.6657,95.8461 84.5,91.5C 88.1817,91.3347 91.8484,91.5014 95.5,92C 97.5285,96.7825 96.3619,100.616 92,103.5C 91.447,106.359 91.6137,109.192 92.5,112C 91.0411,115.088 89.7077,118.255 88.5,121.5 Z"/></g>
<g><path style="opacity:0.451" fill="#1b1140" d="M 273.5,102.5 C 274.906,102.973 275.573,103.973 275.5,105.5C 274.094,105.027 273.427,104.027 273.5,102.5 Z"/></g>
<g><path style="opacity:0.895" fill="#6b49d1" d="M 405.5,87.5 C 405.833,87.5 406.167,87.5 406.5,87.5C 406.5,93.5 406.5,99.5 406.5,105.5C 391.167,105.5 375.833,105.5 360.5,105.5C 360.167,105.5 359.833,105.5 359.5,105.5C 360.919,104.549 362.585,104.216 364.5,104.5C 377.833,104.5 391.167,104.5 404.5,104.5C 405.22,98.8623 405.553,93.1956 405.5,87.5 Z"/></g>
<g><path style="opacity:0.14" fill="#050028" d="M 360.5,105.5 C 375.833,105.5 391.167,105.5 406.5,105.5C 391.676,106.496 376.676,106.829 361.5,106.5C 361.5,107.5 361.5,108.5 361.5,109.5C 360.566,108.432 360.232,107.099 360.5,105.5 Z"/></g>
<g><path style="opacity:0.749" fill="#682752" d="M 25.5,96.5 C 23.2643,104.718 22.9309,113.051 24.5,121.5C 20.2706,112.995 20.6039,104.662 25.5,96.5 Z"/></g>
<g><path style="opacity:0.18" fill="#4c153a" d="M 83.5,89.5 C 83.943,95.81 83.2763,101.977 81.5,108C 81.1667,108.5 80.8333,109 80.5,109.5C 78.8144,108.143 77.1477,106.81 75.5,105.5C 75.5,104.833 75.5,104.167 75.5,103.5C 77.1288,104.625 78.6288,105.959 80,107.5C 81.82,101.507 82.9867,95.5073 83.5,89.5 Z"/></g>
<g><path style="opacity:1" fill="#d652a8" d="M 83.5,89.5 C 88.1667,89.5 92.8333,89.5 97.5,89.5C 97.593,95.8627 97.2597,102.196 96.5,108.5C 94.6031,110.698 93.6031,113.364 93.5,116.5C 93.6716,117.492 93.3382,118.158 92.5,118.5C 89.7822,120.423 90.1155,121.756 93.5,122.5C 96.6981,121.964 99.3647,122.631 101.5,124.5C 101.5,128.5 101.5,132.5 101.5,136.5C 99.5853,136.216 97.9187,136.549 96.5,137.5C 96.1667,137.5 95.8333,137.5 95.5,137.5C 91.7674,137.13 88.1007,136.463 84.5,135.5C 84.1667,134.833 83.8333,134.167 83.5,133.5C 86.4299,134.299 89.4299,134.632 92.5,134.5C 91.8333,130.5 93.5,128.833 97.5,129.5C 97.6715,131.492 97.0049,133.158 95.5,134.5C 97.0453,135.452 98.712,135.785 100.5,135.5C 100.577,131.785 100.244,128.119 99.5,124.5C 96.1667,124.5 92.8333,124.5 89.5,124.5C 89.7373,123.209 89.404,122.209 88.5,121.5C 89.7077,118.255 91.0411,115.088 92.5,112C 91.6137,109.192 91.447,106.359 92,103.5C 96.3619,100.616 97.5285,96.7825 95.5,92C 91.8484,91.5014 88.1817,91.3347 84.5,91.5C 84.6657,95.8461 84.499,100.179 84,104.5C 83.484,107.251 82.3173,109.584 80.5,111.5C 79.1502,110.05 77.4835,109.383 75.5,109.5C 75.5,108.167 75.5,106.833 75.5,105.5C 77.1477,106.81 78.8144,108.143 80.5,109.5C 80.8333,109 81.1667,108.5 81.5,108C 83.2763,101.977 83.943,95.81 83.5,89.5 Z"/></g>
<g><path style="opacity:1" fill="#6b44de" d="M 243.5,106.5 C 247.754,106.08 251.754,106.747 255.5,108.5C 256.584,108.315 257.584,107.982 258.5,107.5C 260.648,107.389 260.981,108.056 259.5,109.5C 261.98,113.737 262.146,118.07 260,122.5C 258.644,123.38 257.144,123.714 255.5,123.5C 256.688,122.636 257.855,121.636 259,120.5C 259.498,117.518 259.665,114.518 259.5,111.5C 258.5,111.5 257.5,111.5 256.5,111.5C 256.389,110.883 256.056,110.383 255.5,110C 251.469,108.509 247.469,107.343 243.5,106.5 Z"/></g>
<g><path style="opacity:0.043" fill="#330c21" d="M 57.5,107.5 C 58.9063,107.973 59.573,108.973 59.5,110.5C 58.0937,110.027 57.427,109.027 57.5,107.5 Z"/></g>
<g><path style="opacity:0.831" fill="#3b257e" d="M 359.5,105.5 C 359.833,105.5 360.167,105.5 360.5,105.5C 360.232,107.099 360.566,108.432 361.5,109.5C 362.363,111.421 363.029,113.421 363.5,115.5C 360.433,112.985 359.099,109.651 359.5,105.5 Z"/></g>
<g><path style="opacity:0.047" fill="#3d112c" d="M 59.5,110.5 C 60.1667,110.5 60.8333,110.5 61.5,110.5C 62.1667,112.167 62.8333,113.833 63.5,115.5C 61.457,114.421 60.1237,112.754 59.5,110.5 Z"/></g>
<g><path style="opacity:0.69" fill="#2d1d68" d="M 275.5,105.5 C 278.296,110.04 279.129,115.04 278,120.5C 277.14,123.633 275.64,126.3 273.5,128.5C 272.833,128.833 272.167,129.167 271.5,129.5C 272.99,127.419 273.99,125.086 274.5,122.5C 275.117,122.389 275.617,122.056 276,121.5C 276.609,116.139 276.442,110.805 275.5,105.5 Z"/></g>
<g><path style="opacity:0.186" fill="#0d0032" d="M 441.5,91.5 C 440.547,106.798 440.214,122.131 440.5,137.5C 433.978,137.823 427.645,137.49 421.5,136.5C 427.5,136.5 433.5,136.5 439.5,136.5C 439.333,121.83 439.5,107.163 440,92.5C 440.383,91.944 440.883,91.6107 441.5,91.5 Z"/></g>
<g><path style="opacity:0.188" fill="#110532" d="M 239.5,120.5 C 238.391,120.443 237.391,120.11 236.5,119.5C 235.833,119.167 235.167,118.833 234.5,118.5C 233.438,116.243 231.772,115.077 229.5,115C 225.459,118.185 222.459,122.019 220.5,126.5C 219.402,125.399 219.235,124.066 220,122.5C 222.833,119.667 225.667,116.833 228.5,114C 229.833,113.333 231.167,113.333 232.5,114C 234.729,116.4 237.063,118.567 239.5,120.5 Z"/></g>
<g><path style="opacity:0.224" fill="#4b153b" d="M 96.5,108.5 C 96.2671,111.542 95.2671,114.208 93.5,116.5C 93.6031,113.364 94.6031,110.698 96.5,108.5 Z"/></g>
<g><path style="opacity:0.392" fill="#1d114d" d="M 342.5,111.5 C 343.641,114.254 344.975,116.921 346.5,119.5C 347.363,121.421 348.029,123.421 348.5,125.5C 344.89,121.604 342.89,116.937 342.5,111.5 Z"/></g>
<g><path style="opacity:1" fill="#6e48e4" d="M 311.5,81.5 C 310.854,93.8799 311.521,105.88 313.5,117.5C 313.5,118.833 313.5,120.167 313.5,121.5C 316.786,122.207 320.119,122.54 323.5,122.5C 323.03,123.693 322.03,124.36 320.5,124.5C 317.345,122.972 314.512,123.305 312,125.5C 311.82,123.512 311.986,121.512 312.5,119.5C 310.22,119.746 308.22,119.746 306.5,119.5C 308.197,118.636 309.363,117.303 310,115.5C 310.169,103.993 310.669,92.6593 311.5,81.5 Z"/></g>
<g><path style="opacity:0.4" fill="#150e45" d="M 363.5,115.5 C 370.562,121.812 378.562,123.146 387.5,119.5C 387.5,119.833 387.5,120.167 387.5,120.5C 382.103,122.443 376.436,122.943 370.5,122C 367.017,121.015 364.684,118.849 363.5,115.5 Z"/></g>
<g><path style="opacity:0.514" fill="#1c1347" d="M 398.5,115.5 C 396.545,114.677 394.545,114.51 392.5,115C 391.589,117.415 389.922,118.915 387.5,119.5C 389.002,117.825 390.335,115.992 391.5,114C 393.5,113.333 395.5,113.333 397.5,114C 398.056,114.383 398.389,114.883 398.5,115.5 Z"/></g>
<g><path style="opacity:0.149" fill="#0d0030" d="M 398.5,115.5 C 400.027,115.427 401.027,116.094 401.5,117.5C 399.973,117.573 398.973,116.906 398.5,115.5 Z"/></g>
<g><path style="opacity:0.557" fill="#4c153b" d="M 43.5,116.5 C 44.8333,117.167 45.8333,118.167 46.5,119.5C 45.391,119.443 44.391,119.11 43.5,118.5C 43.5,117.833 43.5,117.167 43.5,116.5 Z"/></g>
<g><path style="opacity:0.027" fill="#351027" d="M 63.5,115.5 C 65.3886,116.401 66.7219,117.901 67.5,120C 67.1639,121.03 66.4972,121.53 65.5,121.5C 65.6107,120.883 65.944,120.383 66.5,120C 65.1175,118.729 64.1175,117.229 63.5,115.5 Z"/></g>
<g><path style="opacity:1" fill="#7444fb" d="M 258.5,107.5 C 260.503,106.468 262.503,106.802 264.5,108.5C 260.519,109.494 260.519,110.494 264.5,111.5C 265.935,109.599 267.602,109.266 269.5,110.5C 266.952,112.219 267.285,113.552 270.5,114.5C 269.626,117.473 270.96,118.806 274.5,118.5C 274.5,119.833 274.5,121.167 274.5,122.5C 273.99,125.086 272.99,127.419 271.5,129.5C 271.167,130.167 270.833,130.833 270.5,131.5C 268.973,131.427 267.973,132.094 267.5,133.5C 265.167,134.167 262.833,134.833 260.5,135.5C 252.829,136.778 245.163,136.778 237.5,135.5C 236.833,135.5 236.167,135.5 235.5,135.5C 234.656,133.241 232.989,132.241 230.5,132.5C 230.271,130.567 229.438,128.9 228,127.5C 225.175,129.006 223.342,128.173 222.5,125C 224.852,119.429 228.852,117.262 234.5,118.5C 235.167,118.833 235.833,119.167 236.5,119.5C 237.475,121.193 238.808,122.693 240.5,124C 245.684,124.816 250.684,124.65 255.5,123.5C 257.144,123.714 258.644,123.38 260,122.5C 262.146,118.07 261.98,113.737 259.5,109.5C 260.981,108.056 260.648,107.389 258.5,107.5 Z"/></g>
<g><path style="opacity:0.09" fill="#0f052b" d="M 401.5,117.5 C 403.027,117.427 404.027,118.094 404.5,119.5C 402.973,119.573 401.973,118.906 401.5,117.5 Z"/></g>
<g><path style="opacity:0.061" fill="#340a26" d="M 92.5,118.5 C 92.4326,119.959 92.7659,121.292 93.5,122.5C 90.1155,121.756 89.7822,120.423 92.5,118.5 Z"/></g>
<g><path style="opacity:1" fill="#6c45e0" d="M 398.5,115.5 C 398.973,116.906 399.973,117.573 401.5,117.5C 401.973,118.906 402.973,119.573 404.5,119.5C 405.167,119.5 405.5,119.833 405.5,120.5C 404.833,122.5 404.167,124.5 403.5,126.5C 401.5,127.833 399.833,129.5 398.5,131.5C 397.609,130.89 396.609,130.557 395.5,130.5C 395.389,129.883 395.056,129.383 394.5,129C 397.2,128.233 399.7,127.067 402,125.5C 402.798,123.741 402.631,122.074 401.5,120.5C 400.304,120.846 400.304,121.346 401.5,122C 398.029,122.687 397.695,121.687 400.5,119C 398.874,119.195 397.207,119.195 395.5,119C 396.902,117.658 396.569,116.824 394.5,116.5C 392.853,117.278 391.52,118.444 390.5,120C 389.552,120.483 388.552,120.649 387.5,120.5C 387.5,120.167 387.5,119.833 387.5,119.5C 389.922,118.915 391.589,117.415 392.5,115C 394.545,114.51 396.545,114.677 398.5,115.5 Z"/></g>
<g><path style="opacity:0.101" fill="#030021" d="M 135.5,113.5 C 136.468,115.607 136.802,117.941 136.5,120.5C 150.344,120.171 164.01,120.504 177.5,121.5C 177.167,121.5 176.833,121.5 176.5,121.5C 162.833,121.5 149.167,121.5 135.5,121.5C 135.5,118.833 135.5,116.167 135.5,113.5 Z"/></g>
<g><path style="opacity:0.333" fill="#110c3c" d="M 256.5,111.5 C 257.5,111.5 258.5,111.5 259.5,111.5C 259.665,114.518 259.498,117.518 259,120.5C 257.855,121.636 256.688,122.636 255.5,123.5C 251.818,123.665 248.152,123.499 244.5,123C 243.263,122.768 242.263,122.268 241.5,121.5C 246.588,122.867 251.588,122.7 256.5,121C 259.112,117.836 259.112,114.669 256.5,111.5 Z"/></g>
<g><path style="opacity:0.116" fill="#0e0939" d="M 313.5,117.5 C 314.316,119.144 315.65,120.31 317.5,121C 321.239,121.319 324.906,120.819 328.5,119.5C 330.516,119.516 331.516,120.516 331.5,122.5C 328.912,120.43 326.246,120.43 323.5,122.5C 320.119,122.54 316.786,122.207 313.5,121.5C 313.5,120.167 313.5,118.833 313.5,117.5 Z"/></g>
<g><path style="opacity:1" fill="#4e35a2" d="M 331.5,122.5 C 332.434,123.568 332.768,124.901 332.5,126.5C 332.167,126.5 331.833,126.5 331.5,126.5C 330.751,125.469 330.085,124.302 329.5,123C 327.527,122.505 325.527,122.338 323.5,122.5C 326.246,120.43 328.912,120.43 331.5,122.5 Z"/></g>
<g><path style="opacity:0.845" fill="#6546ca" d="M 236.5,119.5 C 237.391,120.11 238.391,120.443 239.5,120.5C 240.492,120.328 241.158,120.662 241.5,121.5C 242.263,122.268 243.263,122.768 244.5,123C 248.152,123.499 251.818,123.665 255.5,123.5C 250.684,124.65 245.684,124.816 240.5,124C 238.808,122.693 237.475,121.193 236.5,119.5 Z"/></g>
<g><path style="opacity:0.157" fill="#360d29" d="M 25.5,123.5 C 26.9063,123.973 27.573,124.973 27.5,126.5C 26.0937,126.027 25.427,125.027 25.5,123.5 Z"/></g>
<g><path style="opacity:1" fill="#6e47d8" d="M 346.5,119.5 C 349.209,121.903 351.209,124.903 352.5,128.5C 351.167,127.5 349.833,126.5 348.5,125.5C 348.029,123.421 347.363,121.421 346.5,119.5 Z"/></g>
<g><path style="opacity:0.09" fill="#130935" d="M 405.5,120.5 C 407.016,123.08 406.349,125.08 403.5,126.5C 404.167,124.5 404.833,122.5 405.5,120.5 Z"/></g>
<g><path style="opacity:1" fill="#f051bb" d="M 43.5,116.5 C 43.5,117.167 43.5,117.833 43.5,118.5C 43.5106,120.017 44.1772,121.184 45.5,122C 50.864,124.278 56.5307,125.111 62.5,124.5C 62.3505,125.552 62.5172,126.552 63,127.5C 65.095,125.95 67.2617,125.617 69.5,126.5C 69.2907,127.086 68.9574,127.586 68.5,128C 70.3921,128.973 72.3921,129.64 74.5,130C 73.2214,131.646 71.5547,132.813 69.5,133.5C 64.6831,134.304 59.8498,134.971 55,135.5C 53.2028,134.734 51.3695,134.068 49.5,133.5C 46.8599,134.095 44.1933,134.428 41.5,134.5C 40.5084,134.672 39.8417,134.338 39.5,133.5C 38.8592,132.518 38.1925,131.518 37.5,130.5C 38.9079,129.757 40.2412,128.923 41.5,128C 40.5838,127.626 39.7504,127.126 39,126.5C 35.3763,129.469 32.2096,129.136 29.5,125.5C 31.0396,124.468 31.5396,123.135 31,121.5C 30.6667,121.833 30.3333,122.167 30,122.5C 28.5959,120.231 27.0959,118.064 25.5,116C 25.6696,113.473 26.6696,112.973 28.5,114.5C 29.5121,112.163 29.3454,109.83 28,107.5C 27.0862,108.654 26.2529,108.487 25.5,107C 26.2883,103.924 26.7883,100.758 27,97.5C 27.414,97.0426 27.914,96.7093 28.5,96.5C 29.3958,99.1436 30.2291,101.81 31,104.5C 32.0113,105.337 33.1779,105.67 34.5,105.5C 33.7593,108.634 32.7593,111.634 31.5,114.5C 36.4669,113.681 38.6335,110.681 38,105.5C 38.1539,109.098 39.1539,112.431 41,115.5C 41.6708,116.252 42.5041,116.586 43.5,116.5 Z"/></g>
<g><path style="opacity:0.008" fill="#150531" d="M 348.5,125.5 C 349.833,126.5 351.167,127.5 352.5,128.5C 353.167,129.5 353.833,130.5 354.5,131.5C 351.5,130.5 349.5,128.5 348.5,125.5 Z"/></g>
<g><path style="opacity:0.016" fill="#2c071c" d="M 27.5,126.5 C 29.1667,127.5 30.5,128.833 31.5,130.5C 29.1667,130.167 27.8333,128.833 27.5,126.5 Z"/></g>
<g><path style="opacity:0.004" fill="#0a0121" d="M 220.5,126.5 C 221.5,126.833 222.167,127.5 222.5,128.5C 221.167,128.5 220.5,127.833 220.5,126.5 Z"/></g>
<g><path style="opacity:1" fill="#e953b6" d="M 88.5,121.5 C 89.404,122.209 89.7373,123.209 89.5,124.5C 92.8333,124.5 96.1667,124.5 99.5,124.5C 100.244,128.119 100.577,131.785 100.5,135.5C 98.712,135.785 97.0453,135.452 95.5,134.5C 97.0049,133.158 97.6715,131.492 97.5,129.5C 93.5,128.833 91.8333,130.5 92.5,134.5C 89.4299,134.632 86.4299,134.299 83.5,133.5C 82.8333,133.5 82.1667,133.5 81.5,133.5C 80.4617,131.481 79.1284,131.147 77.5,132.5C 77.1583,133.338 76.4916,133.672 75.5,133.5C 66.5234,136.982 57.19,138.315 47.5,137.5C 45.5,136.5 43.5,135.5 41.5,134.5C 44.1933,134.428 46.8599,134.095 49.5,133.5C 51.3695,134.068 53.2028,134.734 55,135.5C 59.8498,134.971 64.6831,134.304 69.5,133.5C 71.5547,132.813 73.2214,131.646 74.5,130C 72.3921,129.64 70.3921,128.973 68.5,128C 68.9574,127.586 69.2907,127.086 69.5,126.5C 67.2617,125.617 65.095,125.95 63,127.5C 62.5172,126.552 62.3505,125.552 62.5,124.5C 56.5307,125.111 50.864,124.278 45.5,122C 44.1772,121.184 43.5106,120.017 43.5,118.5C 44.391,119.11 45.391,119.443 46.5,119.5C 46.8212,121.048 47.8212,121.715 49.5,121.5C 51.8066,123.047 54.4733,123.713 57.5,123.5C 60.5267,123.713 63.1934,123.047 65.5,121.5C 66.4972,121.53 67.1639,121.03 67.5,120C 66.7219,117.901 65.3886,116.401 63.5,115.5C 62.8333,113.833 62.1667,112.167 61.5,110.5C 63.0031,109.318 64.6698,108.818 66.5,109C 67.6815,112.218 69.6815,114.718 72.5,116.5C 71.675,117.386 70.675,117.719 69.5,117.5C 69.6427,119.262 69.3094,120.929 68.5,122.5C 71.0866,126.62 74.7533,128.454 79.5,128C 77.9632,126.89 77.2965,125.39 77.5,123.5C 79.1238,123.36 80.2904,124.027 81,125.5C 83.6266,124.232 86.1266,122.899 88.5,121.5 Z"/></g>
<g><path style="opacity:0.141" fill="#370f27" d="M 49.5,121.5 C 54.842,122.761 60.1753,122.761 65.5,121.5C 63.1934,123.047 60.5267,123.713 57.5,123.5C 54.4733,123.713 51.8066,123.047 49.5,121.5 Z"/></g>
<g><path style="opacity:0.761" fill="#642449" d="M 46.5,119.5 C 47.7095,119.932 48.7095,120.599 49.5,121.5C 47.8212,121.715 46.8212,121.048 46.5,119.5 Z"/></g>
<g><path style="opacity:0.675" fill="#261758" d="M 223.5,129.5 C 225.404,129.738 226.738,130.738 227.5,132.5C 225.596,132.262 224.262,131.262 223.5,129.5 Z"/></g>
<g><path style="opacity:1" fill="#6a45da" d="M 234.5,118.5 C 228.852,117.262 224.852,119.429 222.5,125C 223.342,128.173 225.175,129.006 228,127.5C 229.438,128.9 230.271,130.567 230.5,132.5C 232.989,132.241 234.656,133.241 235.5,135.5C 234.833,135.5 234.167,135.5 233.5,135.5C 232.508,135.672 231.842,135.338 231.5,134.5C 230.486,133.326 229.153,132.66 227.5,132.5C 226.738,130.738 225.404,129.738 223.5,129.5C 222.833,129.5 222.5,129.167 222.5,128.5C 222.167,127.5 221.5,126.833 220.5,126.5C 222.459,122.019 225.459,118.185 229.5,115C 231.772,115.077 233.438,116.243 234.5,118.5 Z"/></g>
<g><path style="opacity:0.008" fill="#0e022d" d="M 273.5,128.5 C 273.5,130.5 272.5,131.5 270.5,131.5C 270.833,130.833 271.167,130.167 271.5,129.5C 272.167,129.167 272.833,128.833 273.5,128.5 Z"/></g>
<g><path style="opacity:0.929" fill="#432d8a" d="M 395.5,130.5 C 396.609,130.557 397.609,130.89 398.5,131.5C 396.853,133.326 394.853,134.66 392.5,135.5C 392.167,135.5 391.833,135.5 391.5,135.5C 391.5,135.167 391.5,134.833 391.5,134.5C 393.297,133.607 394.63,132.274 395.5,130.5 Z"/></g>
<g><path style="opacity:0.008" fill="#0c012c" d="M 403.5,126.5 C 402.833,129.167 401.167,130.833 398.5,131.5C 399.833,129.5 401.5,127.833 403.5,126.5 Z"/></g>
<g><path style="opacity:0.322" fill="#3e122e" d="M 31.5,130.5 C 33.4044,130.738 34.7377,131.738 35.5,133.5C 33.5956,133.262 32.2623,132.262 31.5,130.5 Z"/></g>
<g><path style="opacity:0.106" fill="#310423" d="M 77.5,132.5 C 79.1284,131.147 80.4617,131.481 81.5,133.5C 80.1667,133.167 78.8333,132.833 77.5,132.5 Z"/></g>
<g><path style="opacity:0.569" fill="#181242" d="M 299.5,131.5 C 302.624,133.98 305.957,135.98 309.5,137.5C 304.912,137.528 301.578,135.528 299.5,131.5 Z"/></g>
<g><path style="opacity:0.443" fill="#180f3d" d="M 332.5,126.5 C 334.227,128.516 335.061,130.849 335,133.5C 332.297,135.902 329.13,137.235 325.5,137.5C 328.549,136.304 331.215,134.471 333.5,132C 332.767,130.234 332.433,128.401 332.5,126.5 Z"/></g>
<g><path style="opacity:0.71" fill="#63274e" d="M 101.5,124.5 C 102.779,128.3 103.279,132.3 103,136.5C 101,137.167 99,137.833 97,138.5C 96.6012,138.272 96.4346,137.938 96.5,137.5C 97.9187,136.549 99.5853,136.216 101.5,136.5C 101.5,132.5 101.5,128.5 101.5,124.5 Z"/></g>
<g><path style="opacity:0.141" fill="#160c4b" d="M 270.5,131.5 C 270.027,132.906 269.027,133.573 267.5,133.5C 267.973,132.094 268.973,131.427 270.5,131.5 Z"/></g>
<g><path style="opacity:0.173" fill="#0c0738" d="M 354.5,131.5 C 356.027,131.427 357.027,132.094 357.5,133.5C 355.973,133.573 354.973,132.906 354.5,131.5 Z"/></g>
<g><path style="opacity:0.784" fill="#521c3d" d="M 35.5,133.5 C 36.8333,133.5 38.1667,133.5 39.5,133.5C 39.8417,134.338 40.5084,134.672 41.5,134.5C 43.5,135.5 45.5,136.5 47.5,137.5C 47.1667,137.5 46.8333,137.5 46.5,137.5C 42.3266,137.333 38.6599,136 35.5,133.5 Z"/></g>
<g><path style="opacity:0.18" fill="#10083e" d="M 227.5,132.5 C 229.153,132.66 230.486,133.326 231.5,134.5C 229.62,134.771 228.287,134.104 227.5,132.5 Z"/></g>
<g><path style="opacity:0.282" fill="#471734" d="M 81.5,133.5 C 82.1667,133.5 82.8333,133.5 83.5,133.5C 83.8333,134.167 84.1667,134.833 84.5,135.5C 82.9731,135.573 81.9731,134.906 81.5,133.5 Z"/></g>
<g><path style="opacity:1" fill="#633fd4" d="M 296.5,123.5 C 297.712,124.23 298.712,125.23 299.5,126.5C 300.803,124.522 302.469,124.522 304.5,126.5C 304.368,127.963 304.035,129.463 303.5,131C 303.759,132.261 304.426,133.261 305.5,134C 313.167,134.667 320.833,134.667 328.5,134C 328.167,133.667 327.833,133.333 327.5,133C 328.656,128.899 329.823,128.732 331,132.5C 331.495,130.527 331.662,128.527 331.5,126.5C 331.833,126.5 332.167,126.5 332.5,126.5C 332.433,128.401 332.767,130.234 333.5,132C 331.215,134.471 328.549,136.304 325.5,137.5C 320.167,138.833 314.833,138.833 309.5,137.5C 305.957,135.98 302.624,133.98 299.5,131.5C 297.957,129.072 296.957,126.406 296.5,123.5 Z"/></g>
<g><path style="opacity:0.887" fill="#3f2b82" d="M 116.5,44.5 C 122.923,44.2088 129.256,44.5422 135.5,45.5C 136.826,68.0689 136.826,90.7356 135.5,113.5C 135.5,116.167 135.5,118.833 135.5,121.5C 149.167,121.5 162.833,121.5 176.5,121.5C 176.5,126.5 176.5,131.5 176.5,136.5C 156.5,136.5 136.5,136.5 116.5,136.5C 115.167,105.833 115.167,75.1667 116.5,44.5 Z"/></g>
<g><path style="opacity:1" fill="#714ae7" d="M 134.5,121.5 C 132.824,120.817 132.157,119.483 132.5,117.5C 132.5,93.8333 132.5,70.1667 132.5,46.5C 129.167,46.5 125.833,46.5 122.5,46.5C 121.167,46.5 119.833,46.5 118.5,46.5C 118.5,75.8333 118.5,105.167 118.5,134.5C 137.167,134.5 155.833,134.5 174.5,134.5C 174.5,130.5 174.5,126.5 174.5,122.5C 175.485,126.634 175.818,130.968 175.5,135.5C 156.167,135.5 136.833,135.5 117.5,135.5C 117.5,105.5 117.5,75.5 117.5,45.5C 123.093,45.1934 128.593,45.5268 134,46.5C 134.5,71.4978 134.667,96.4978 134.5,121.5 Z"/></g>
<g><path style="opacity:1" fill="#7444fd" d="M 122.5,46.5 C 125.833,46.5 129.167,46.5 132.5,46.5C 132.5,70.1667 132.5,93.8333 132.5,117.5C 129.795,117.38 129.128,118.38 130.5,120.5C 126.778,122.701 127.111,124.535 131.5,126C 127.801,127.198 124.801,129.365 122.5,132.5C 121.165,130.353 121.331,128.353 123,126.5C 123.815,99.791 123.649,73.1243 122.5,46.5 Z"/></g>
<g><path style="opacity:1" fill="#7544fd" d="M 122.5,46.5 C 123.649,73.1243 123.815,99.791 123,126.5C 121.331,128.353 121.165,130.353 122.5,132.5C 124.801,129.365 127.801,127.198 131.5,126C 127.111,124.535 126.778,122.701 130.5,120.5C 129.128,118.38 129.795,117.38 132.5,117.5C 132.157,119.483 132.824,120.817 134.5,121.5C 147.656,122.496 160.99,122.829 174.5,122.5C 174.5,126.5 174.5,130.5 174.5,134.5C 155.833,134.5 137.167,134.5 118.5,134.5C 118.5,105.167 118.5,75.8333 118.5,46.5C 119.833,46.5 121.167,46.5 122.5,46.5 Z"/></g>
<g><path style="opacity:0.447" fill="#120b3e" d="M 233.5,135.5 C 234.167,135.5 234.833,135.5 235.5,135.5C 236.167,135.5 236.833,135.5 237.5,135.5C 238.5,136.167 239.5,136.833 240.5,137.5C 237.848,137.59 235.515,136.924 233.5,135.5 Z"/></g>
<g><path style="opacity:0.439" fill="#1c124e" d="M 357.5,133.5 C 360.327,133.584 362.994,134.25 365.5,135.5C 366.5,136.167 367.5,136.833 368.5,137.5C 364.327,137.333 360.66,136 357.5,133.5 Z"/></g>
<g><path style="opacity:0.612" fill="#4e1d3c" d="M 84.5,135.5 C 88.1007,136.463 91.7674,137.13 95.5,137.5C 91.4938,139.069 87.8272,138.402 84.5,135.5 Z"/></g>
<g><path style="opacity:0.18" fill="#07003b" d="M 176.5,121.5 C 176.833,121.5 177.167,121.5 177.5,121.5C 177.5,126.833 177.5,132.167 177.5,137.5C 156.993,137.83 136.66,137.497 116.5,136.5C 136.5,136.5 156.5,136.5 176.5,136.5C 176.5,131.5 176.5,126.5 176.5,121.5 Z"/></g>
<g><path style="opacity:0.922" fill="#473195" d="M 237.5,135.5 C 245.163,136.778 252.829,136.778 260.5,135.5C 259.833,136.167 259.167,136.833 258.5,137.5C 252.5,138.833 246.5,138.833 240.5,137.5C 239.5,136.833 238.5,136.167 237.5,135.5 Z"/></g>
<g><path style="opacity:0.118" fill="#110b3d" d="M 267.5,133.5 C 265.102,135.974 262.102,137.308 258.5,137.5C 259.167,136.833 259.833,136.167 260.5,135.5C 262.833,134.833 265.167,134.167 267.5,133.5 Z"/></g>
<g><path style="opacity:0.918" fill="#493299" d="M 391.5,134.5 C 391.5,134.833 391.5,135.167 391.5,135.5C 389.447,135.402 387.78,136.069 386.5,137.5C 380.5,138.833 374.5,138.833 368.5,137.5C 367.5,136.833 366.5,136.167 365.5,135.5C 367.903,135.448 370.236,135.781 372.5,136.5C 378.967,136.67 385.3,136.004 391.5,134.5 Z"/></g>
<g><path style="opacity:0.114" fill="#0e042d" d="M 391.5,135.5 C 391.833,135.5 392.167,135.5 392.5,135.5C 390.786,136.738 388.786,137.405 386.5,137.5C 387.78,136.069 389.447,135.402 391.5,135.5 Z"/></g>
<g><path style="opacity:0.05" fill="#1d0311" d="M 75.5,133.5 C 72.7548,136.038 69.4215,137.538 65.5,138C 58.9863,138.82 52.6529,138.653 46.5,137.5C 46.8333,137.5 47.1667,137.5 47.5,137.5C 57.19,138.315 66.5234,136.982 75.5,133.5 Z"/></g>
</svg>
