<svg version="1.1" id="Layer_1" xmlns="http://www.w3.org/2000/svg" xmlns:xlink="http://www.w3.org/1999/xlink" x="0px" y="0px"
	 width="100%" viewBox="0 0 512 167" enable-background="new 0 0 512 167" xml:space="preserve">
<path fill="#010002" opacity="1.000000" stroke="none" 
	d="
M325.000000,168.000000 
	C216.666687,168.000000 108.833374,168.000000 1.000043,168.000000 
	C1.000029,112.333366 1.000029,56.666725 1.000015,1.000066 
	C171.666611,1.000044 342.333221,1.000044 512.999878,1.000022 
	C512.999878,56.666595 512.999878,112.333191 512.999939,167.999893 
	C450.500000,168.000000 388.000000,168.000000 325.000000,168.000000 
M88.668762,75.672302 
	C89.816528,74.877342 91.959213,74.076218 91.954338,73.288383 
	C91.915977,67.092545 91.466904,60.899258 91.089745,54.123600 
	C90.977882,53.750870 90.866013,53.378139 90.897095,52.497673 
	C90.832016,52.334339 90.766930,52.171001 90.780106,51.377220 
	C90.527733,50.581814 90.275368,49.786407 90.109604,48.240715 
	C89.575058,46.381191 89.040512,44.521667 88.518257,42.605148 
	C88.518257,42.605148 88.466118,42.579136 88.304565,41.882450 
	C82.649315,29.518007 73.001228,22.685806 59.448818,22.466326 
	C46.291019,22.253237 36.256546,28.469873 30.632692,40.326553 
	C25.967470,50.162170 24.331551,60.861790 25.508102,71.787109 
	C25.644251,73.051369 27.091511,74.769592 28.311525,75.201042 
	C31.053158,76.170586 34.033981,76.463768 37.168484,77.684120 
	C38.902210,80.467834 40.635933,83.251556 42.593784,86.395134 
	C40.734386,87.412720 39.165180,88.266739 37.600334,89.128662 
	C28.649809,94.058578 23.806475,101.518555 24.048019,111.850807 
	C24.294775,122.405945 28.905361,130.592468 38.648449,134.998718 
	C51.437531,140.782516 64.466545,140.912125 77.134346,134.497635 
	C79.796623,133.149582 81.438217,133.080124 83.734215,134.961487 
	C88.700974,139.031326 94.623039,139.794342 100.715240,138.538239 
	C101.963890,138.280792 103.789886,136.311111 103.754051,135.181274 
	C103.646065,131.776733 102.751457,128.397156 102.259605,125.561371 
	C98.426102,124.818779 95.326012,124.218254 91.694305,123.514755 
	C97.460617,112.886871 99.990921,102.646217 99.138992,91.550247 
	C94.131409,91.550247 89.694565,91.550247 85.435020,91.550247 
	C84.614868,98.171753 83.833855,104.477242 83.052849,110.782722 
	C82.521889,110.877029 81.990929,110.971336 81.459969,111.065643 
	C75.896912,103.751251 70.333855,96.436867 65.410126,89.963066 
	C71.001656,85.027191 76.106941,80.520546 81.683243,75.883751 
	C82.077942,75.619781 82.472633,75.355812 83.130951,75.698830 
	C84.733429,75.665985 86.335907,75.633141 88.668762,75.672302 
M344.897491,114.385735 
	C349.062592,129.748749 359.420990,138.068924 375.506653,138.971985 
	C391.107880,139.847855 402.459442,134.049225 407.109375,122.373215 
	C403.216492,119.959480 399.233124,117.489647 395.332245,115.070953 
	C387.791107,124.021988 379.078796,126.468491 370.254639,122.500435 
	C364.748627,120.024498 361.477112,113.832893 362.356110,107.029175 
	C374.262482,107.029175 386.227753,107.030182 398.193024,107.028870 
	C408.403534,107.027748 408.417084,107.026115 408.066071,96.571541 
	C407.740784,86.882683 405.427734,78.027130 396.884125,72.164383 
	C377.402222,58.795650 348.962799,70.119576 344.826202,93.245117 
	C343.652649,99.805840 344.717621,106.766983 344.897491,114.385735 
M476.246674,70.081741 
	C462.631866,64.097359 450.766418,66.055656 440.698090,79.131721 
	C440.368591,74.691376 440.132263,71.506538 439.887482,68.207916 
	C434.237000,68.207916 429.132782,68.207916 423.671082,68.207916 
	C423.671082,91.497414 423.671082,114.531967 423.671082,137.566406 
	C429.624359,137.566406 435.162384,137.566406 440.993317,137.566406 
	C440.993317,125.283905 440.878815,113.465958 441.064667,101.652725 
	C441.118835,98.210602 441.573364,94.632042 442.641449,91.377602 
	C445.043732,84.057800 452.106171,80.581604 460.392456,82.130821 
	C466.188019,83.214371 468.726654,87.226059 468.754242,95.523232 
	C468.795227,107.850037 468.773651,120.177032 468.812866,132.503845 
	C468.818451,134.253204 469.016357,136.001938 469.122589,137.707993 
	C474.993652,137.707993 480.248077,137.707993 485.474854,137.707993 
	C485.733215,136.935654 486.019531,136.478424 486.019836,136.020981 
	C486.030548,120.198563 486.261444,104.370316 485.890228,88.556305 
	C485.722198,81.398926 483.350586,74.775612 476.246674,70.081741 
M261.081696,115.470856 
	C262.095398,121.102386 260.086731,124.163055 254.509827,124.824654 
	C247.600662,125.644295 241.293411,124.064285 235.999359,119.280014 
	C234.687515,118.094498 233.334167,116.954895 231.748764,115.575714 
	C229.518600,117.909760 227.566376,119.923874 225.646378,121.968262 
	C221.296768,126.599609 221.383301,127.649658 226.385162,131.636871 
	C236.734024,139.886429 256.541962,141.543655 268.081421,135.180206 
	C273.169739,132.374252 276.468842,128.209442 277.994446,122.627647 
	C281.345215,110.368156 274.657806,100.334213 260.952667,97.015587 
	C255.795883,95.766884 250.464767,94.945732 245.580353,93.005287 
	C243.565659,92.204895 241.371979,88.966957 241.381485,86.847206 
	C241.389496,85.060143 244.339279,83.129570 246.247543,81.584351 
	C247.017700,80.960701 248.478500,81.168953 249.629669,81.040321 
	C256.330231,80.291618 261.861328,83.063065 266.980469,87.560013 
	C270.351837,83.879486 273.336945,80.620651 276.915649,76.713776 
	C273.952362,74.519104 271.673004,72.329659 268.983002,70.928833 
	C259.320740,65.897171 249.196182,65.812744 238.962250,68.948906 
	C230.337479,71.591949 225.175629,78.150436 224.692383,86.779205 
	C224.185562,95.828606 228.134384,102.255516 236.877792,105.923866 
	C240.220734,107.326416 243.910324,107.882614 247.317520,109.157112 
	C251.870697,110.860275 256.302765,112.887199 261.081696,115.470856 
M136.255646,73.500092 
	C136.255646,64.436455 136.255646,55.372818 136.255646,45.977879 
	C131.324905,45.977879 127.326736,46.236668 123.377815,45.906498 
	C119.271217,45.563137 117.930237,46.895817 117.956421,51.132343 
	C118.125168,78.438255 118.106125,105.746132 117.956230,133.052307 
	C117.934845,136.948364 119.013527,138.194290 123.006470,138.133621 
	C137.822067,137.908524 152.643143,138.044693 167.462158,138.045120 
	C170.744293,138.045212 174.026413,138.045120 177.486176,138.045120 
	C177.486176,132.741074 177.486176,128.065353 177.486176,122.866898 
	C163.594818,122.866898 150.187576,122.866898 137.014679,122.866898 
	C136.655151,122.039665 136.414093,121.742935 136.412857,121.445198 
	C136.347641,105.796883 136.302750,90.148491 136.255646,73.500092 
M325.432220,67.974861 
	C321.499817,67.974861 317.567413,67.974861 312.970428,67.974861 
	C312.970428,62.230236 312.970428,57.190041 312.970428,51.745960 
	C307.656921,52.575645 303.024841,53.071270 298.535034,54.155888 
	C297.374756,54.436184 296.035553,56.487919 295.867523,57.859344 
	C295.474548,61.066708 295.741974,64.354973 295.741974,67.683655 
	C291.790405,67.904243 288.711060,68.076149 285.516174,68.254501 
	C285.516174,72.994690 285.516174,77.230637 285.516174,81.774704 
	C288.942719,81.946465 292.025116,82.100983 295.724152,82.286407 
	C295.724152,84.407715 295.721161,86.192467 295.724640,87.977203 
	C295.742798,97.301117 295.539551,106.631935 295.828217,115.947502 
	C296.432434,135.445786 315.733429,145.902557 332.718719,135.999634 
	C333.775421,135.383560 335.150696,133.622391 334.924438,132.788101 
	C333.908020,129.040039 332.366089,125.434479 330.964478,121.644318 
	C329.442261,122.224129 328.680054,122.524757 327.910797,122.805916 
	C318.083252,126.397621 313.249268,123.026230 313.208374,112.526176 
	C313.184387,106.365570 313.205200,100.204803 313.205627,94.044106 
	C313.205872,90.131592 313.205658,86.219078 313.205658,81.726608 
	C320.322662,81.726608 326.557648,81.726608 332.695953,81.726608 
	C332.695953,76.879311 332.695953,72.638290 332.695953,67.970108 
	C330.339874,67.970108 328.370911,67.970108 325.432220,67.974861 
M191.019699,105.500000 
	C191.019699,116.242538 191.019699,126.985069 191.019699,137.708191 
	C197.331024,137.708191 202.746124,137.708191 208.292664,137.708191 
	C208.292664,114.351242 208.292664,91.342354 208.292664,68.318634 
	C202.417465,68.318634 197.003906,68.318634 191.019699,68.318634 
	C191.019699,80.611511 191.019699,92.555756 191.019699,105.500000 
M192.323456,41.749866 
	C191.572372,42.830135 190.624405,43.823967 190.105347,45.006111 
	C188.179718,49.391613 188.833191,53.590614 192.146240,56.940674 
	C195.466125,60.297649 199.671234,60.810478 204.097153,59.159214 
	C208.546005,57.499378 210.507645,53.999954 210.636124,49.536068 
	C210.890259,40.706711 201.724258,36.473495 192.323456,41.749866 
z"/>
<path fill="#E952B7" opacity="1.000000" stroke="none" 
	d="
M81.212227,76.013901 
	C76.106941,80.520546 71.001656,85.027191 65.410126,89.963066 
	C70.333855,96.436867 75.896912,103.751251 81.459969,111.065643 
	C81.990929,110.971336 82.521889,110.877029 83.052849,110.782722 
	C83.833855,104.477242 84.614868,98.171753 85.435020,91.550247 
	C89.694565,91.550247 94.131409,91.550247 99.138992,91.550247 
	C99.990921,102.646217 97.460617,112.886871 91.694305,123.514755 
	C95.326012,124.218254 98.426102,124.818779 102.259605,125.561371 
	C102.751457,128.397156 103.646065,131.776733 103.754051,135.181274 
	C103.789886,136.311111 101.963890,138.280792 100.715240,138.538239 
	C94.623039,139.794342 88.700974,139.031326 83.734215,134.961487 
	C81.438217,133.080124 79.796623,133.149582 77.134346,134.497635 
	C64.466545,140.912125 51.437531,140.782516 38.648449,134.998718 
	C28.905361,130.592468 24.294775,122.405945 24.048019,111.850807 
	C23.806475,101.518555 28.649809,94.058578 37.600334,89.128662 
	C39.165180,88.266739 40.734386,87.412720 42.593784,86.395134 
	C40.635933,83.251556 38.902210,80.467834 37.102264,77.085510 
	C37.028198,76.300835 37.020355,76.114769 37.256523,75.610260 
	C37.769840,68.266899 38.039154,61.241962 38.529198,53.972420 
	C50.290104,42.123135 70.051582,41.775459 80.250168,53.414925 
	C79.911858,55.299881 79.352753,56.790581 79.466728,58.227901 
	C79.937592,64.165375 80.612366,70.086670 81.212227,76.013901 
M43.815876,102.576050 
	C41.010906,110.520271 42.282642,117.087784 47.435371,121.267891 
	C53.167511,125.918045 62.827328,126.323967 69.696236,121.897057 
	C62.966309,113.487328 56.271320,105.121254 49.124641,96.190750 
	C47.134453,98.469566 45.640118,100.180618 43.815876,102.576050 
M60.345940,77.954903 
	C62.392864,76.281700 64.752686,74.870316 66.419090,72.878716 
	C69.522537,69.169624 69.194946,62.814716 66.156181,60.063522 
	C62.971397,57.180130 56.929016,57.323357 53.832691,60.355637 
	C49.445690,64.651909 52.064999,76.835602 57.873077,78.899414 
	C58.346699,79.067711 59.080654,78.503342 60.345940,77.954903 
z"/>
<path fill="#7345F4" opacity="1.000000" stroke="none" 
	d="
M344.826752,113.965111 
	C344.717621,106.766983 343.652649,99.805840 344.826202,93.245117 
	C348.962799,70.119576 377.402222,58.795650 396.884125,72.164383 
	C405.427734,78.027130 407.740784,86.882683 408.066071,96.571541 
	C408.417084,107.026115 408.403534,107.027748 398.193024,107.028870 
	C386.227753,107.030182 374.262482,107.029175 362.356110,107.029175 
	C361.477112,113.832893 364.748627,120.024498 370.254639,122.500435 
	C379.078796,126.468491 387.791107,124.021988 395.332245,115.070953 
	C399.233124,117.489647 403.216492,119.959480 407.109375,122.373215 
	C402.459442,134.049225 391.107880,139.847855 375.506653,138.971985 
	C359.420990,138.068924 349.062592,129.748749 344.826752,113.965111 
M363.269592,95.837486 
	C372.466919,95.837486 381.664276,95.837486 390.817505,95.837486 
	C391.211121,86.452736 386.809875,81.555542 378.721313,80.938080 
	C369.830261,80.259361 362.102539,86.705093 363.269592,95.837486 
z"/>
<path fill="#7245F4" opacity="1.000000" stroke="none" 
	d="
M476.555725,70.289795 
	C483.350586,74.775612 485.722198,81.398926 485.890228,88.556305 
	C486.261444,104.370316 486.030548,120.198563 486.019836,136.020981 
	C486.019531,136.478424 485.733215,136.935654 485.474854,137.707993 
	C480.248077,137.707993 474.993652,137.707993 469.122589,137.707993 
	C469.016357,136.001938 468.818451,134.253204 468.812866,132.503845 
	C468.773651,120.177032 468.795227,107.850037 468.754242,95.523232 
	C468.726654,87.226059 466.188019,83.214371 460.392456,82.130821 
	C452.106171,80.581604 445.043732,84.057800 442.641449,91.377602 
	C441.573364,94.632042 441.118835,98.210602 441.064667,101.652725 
	C440.878815,113.465958 440.993317,125.283905 440.993317,137.566406 
	C435.162384,137.566406 429.624359,137.566406 423.671082,137.566406 
	C423.671082,114.531967 423.671082,91.497414 423.671082,68.207916 
	C429.132782,68.207916 434.237000,68.207916 439.887482,68.207916 
	C440.132263,71.506538 440.368591,74.691376 440.698090,79.131721 
	C450.766418,66.055656 462.631866,64.097359 476.555725,70.289795 
z"/>
<path fill="#7245F3" opacity="1.000000" stroke="none" 
	d="
M260.934265,115.122971 
	C256.302765,112.887199 251.870697,110.860275 247.317520,109.157112 
	C243.910324,107.882614 240.220734,107.326416 236.877792,105.923866 
	C228.134384,102.255516 224.185562,95.828606 224.692383,86.779205 
	C225.175629,78.150436 230.337479,71.591949 238.962250,68.948906 
	C249.196182,65.812744 259.320740,65.897171 268.983002,70.928833 
	C271.673004,72.329659 273.952362,74.519104 276.915649,76.713776 
	C273.336945,80.620651 270.351837,83.879486 266.980469,87.560013 
	C261.861328,83.063065 256.330231,80.291618 249.629669,81.040321 
	C248.478500,81.168953 247.017700,80.960701 246.247543,81.584351 
	C244.339279,83.129570 241.389496,85.060143 241.381485,86.847206 
	C241.371979,88.966957 243.565659,92.204895 245.580353,93.005287 
	C250.464767,94.945732 255.795883,95.766884 260.952667,97.015587 
	C274.657806,100.334213 281.345215,110.368156 277.994446,122.627647 
	C276.468842,128.209442 273.169739,132.374252 268.081421,135.180206 
	C256.541962,141.543655 236.734024,139.886429 226.385162,131.636871 
	C221.383301,127.649658 221.296768,126.599609 225.646378,121.968262 
	C227.566376,119.923874 229.518600,117.909760 231.748764,115.575714 
	C233.334167,116.954895 234.687515,118.094498 235.999359,119.280014 
	C241.293411,124.064285 247.600662,125.644295 254.509827,124.824654 
	C260.086731,124.163055 262.095398,121.102386 260.934265,115.122971 
z"/>
<path fill="#7345F4" opacity="1.000000" stroke="none" 
	d="
M136.255676,74.000092 
	C136.302750,90.148491 136.347641,105.796883 136.412857,121.445198 
	C136.414093,121.742935 136.655151,122.039665 137.014679,122.866898 
	C150.187576,122.866898 163.594818,122.866898 177.486176,122.866898 
	C177.486176,128.065353 177.486176,132.741074 177.486176,138.045120 
	C174.026413,138.045120 170.744293,138.045212 167.462158,138.045120 
	C152.643143,138.044693 137.822067,137.908524 123.006470,138.133621 
	C119.013527,138.194290 117.934845,136.948364 117.956230,133.052307 
	C118.106125,105.746132 118.125168,78.438255 117.956421,51.132343 
	C117.930237,46.895817 119.271217,45.563137 123.377815,45.906498 
	C127.326736,46.236668 131.324905,45.977879 136.255646,45.977879 
	C136.255646,55.372818 136.255646,64.436455 136.255676,74.000092 
z"/>
<path fill="#7345F5" opacity="1.000000" stroke="none" 
	d="
M325.917053,67.972488 
	C328.370911,67.970108 330.339874,67.970108 332.695953,67.970108 
	C332.695953,72.638290 332.695953,76.879311 332.695953,81.726608 
	C326.557648,81.726608 320.322662,81.726608 313.205658,81.726608 
	C313.205658,86.219078 313.205872,90.131592 313.205627,94.044106 
	C313.205200,100.204803 313.184387,106.365570 313.208374,112.526176 
	C313.249268,123.026230 318.083252,126.397621 327.910797,122.805916 
	C328.680054,122.524757 329.442261,122.224129 330.964478,121.644318 
	C332.366089,125.434479 333.908020,129.040039 334.924438,132.788101 
	C335.150696,133.622391 333.775421,135.383560 332.718719,135.999634 
	C315.733429,145.902557 296.432434,135.445786 295.828217,115.947502 
	C295.539551,106.631935 295.742798,97.301117 295.724640,87.977203 
	C295.721161,86.192467 295.724152,84.407715 295.724152,82.286407 
	C292.025116,82.100983 288.942719,81.946465 285.516174,81.774704 
	C285.516174,77.230637 285.516174,72.994690 285.516174,68.254501 
	C288.711060,68.076149 291.790405,67.904243 295.741974,67.683655 
	C295.741974,64.354973 295.474548,61.066708 295.867523,57.859344 
	C296.035553,56.487919 297.374756,54.436184 298.535034,54.155888 
	C303.024841,53.071270 307.656921,52.575645 312.970428,51.745960 
	C312.970428,57.190041 312.970428,62.230236 312.970428,67.974861 
	C317.567413,67.974861 321.499817,67.974861 325.917053,67.972488 
z"/>
<path fill="#7044F1" opacity="1.000000" stroke="none" 
	d="
M191.019699,105.000000 
	C191.019699,92.555756 191.019699,80.611511 191.019699,68.318634 
	C197.003906,68.318634 202.417465,68.318634 208.292664,68.318634 
	C208.292664,91.342354 208.292664,114.351242 208.292664,137.708191 
	C202.746124,137.708191 197.331024,137.708191 191.019699,137.708191 
	C191.019699,126.985069 191.019699,116.242538 191.019699,105.000000 
z"/>
<path fill="#6644CD" opacity="1.000000" stroke="none" 
	d="
M37.012512,75.928696 
	C37.020355,76.114769 37.028198,76.300835 36.976738,76.759583 
	C34.033981,76.463768 31.053158,76.170586 28.311525,75.201042 
	C27.091511,74.769592 25.644251,73.051369 25.508102,71.787109 
	C24.331551,60.861790 25.967470,50.162170 30.632692,40.326553 
	C36.256546,28.469873 46.291019,22.253237 59.448818,22.466326 
	C73.001228,22.685806 82.649315,29.518007 87.976486,42.317184 
	C86.818466,42.829510 85.988541,42.907104 84.922966,42.736786 
	C76.844841,29.206152 65.254265,23.801386 51.717045,27.114597 
	C39.989803,29.984821 31.938129,40.355961 30.699354,53.699764 
	C30.190990,52.496033 29.883070,51.521255 29.575148,50.546478 
	C29.139200,50.566746 28.703251,50.587017 28.267303,50.607285 
	C27.841137,56.828903 27.453331,63.053478 26.974440,69.271034 
	C26.686392,73.010796 28.333498,74.528671 32.324764,74.050705 
	C34.107216,74.727074 35.559864,75.327881 37.012512,75.928696 
z"/>
<path fill="#7145EF" opacity="1.000000" stroke="none" 
	d="
M192.613312,41.496964 
	C201.724258,36.473495 210.890259,40.706711 210.636124,49.536068 
	C210.507645,53.999954 208.546005,57.499378 204.097153,59.159214 
	C199.671234,60.810478 195.466125,60.297649 192.146240,56.940674 
	C188.833191,53.590614 188.179718,49.391613 190.105347,45.006111 
	C190.624405,43.823967 191.572372,42.830135 192.613312,41.496964 
z"/>
<path fill="#7A44EE" opacity="1.000000" stroke="none" 
	d="
M81.447739,75.948830 
	C80.612366,70.086670 79.937592,64.165375 79.466728,58.227901 
	C79.352753,56.790581 79.911858,55.299881 80.615631,53.331909 
	C82.679771,53.280090 84.289749,53.730087 85.881104,54.637115 
	C85.897583,60.086750 86.198692,65.099464 85.823784,70.061089 
	C85.692200,71.802521 83.900818,73.418549 82.867332,75.091835 
	C82.472633,75.355812 82.077942,75.619781 81.447739,75.948830 
z"/>
<path fill="#7348EC" opacity="1.000000" stroke="none" 
	d="
M85.158607,42.984699 
	C85.988541,42.907104 86.818466,42.829510 88.057259,42.665527 
	C88.466118,42.579136 88.518257,42.605148 88.414169,43.012253 
	C88.881050,45.276569 89.452026,47.133785 90.022995,48.990997 
	C90.275368,49.786407 90.527733,50.581814 90.642647,51.803780 
	C90.403008,52.545982 90.485992,52.804340 90.754150,53.005409 
	C90.866013,53.378139 90.977882,53.750870 91.082001,54.900978 
	C91.048164,60.312725 90.996223,64.947151 91.005768,69.581444 
	C91.011391,72.311577 90.046700,74.083321 86.976044,73.559166 
	C86.941971,66.671120 86.936066,60.253971 86.992218,53.457832 
	C87.099701,52.054703 87.145111,51.030567 87.283867,49.888706 
	C87.466911,49.447529 87.373817,49.188938 86.991684,48.761452 
	C86.843605,48.190544 86.801773,47.853397 86.772469,47.177643 
	C86.484741,46.254974 86.184471,45.670910 85.704865,44.863026 
	C85.403221,44.087700 85.280914,43.536201 85.158607,42.984699 
z"/>
<path fill="#6644CD" opacity="1.000000" stroke="none" 
	d="
M87.004196,74.030067 
	C90.046700,74.083321 91.011391,72.311577 91.005768,69.581444 
	C90.996223,64.947151 91.048164,60.312725 91.109299,55.191765 
	C91.466904,60.899258 91.915977,67.092545 91.954338,73.288383 
	C91.959213,74.076218 89.816528,74.877342 88.189247,75.437660 
	C87.474548,74.812035 87.239372,74.421051 87.004196,74.030067 
z"/>
<path fill="#4A27AE" opacity="1.000000" stroke="none" 
	d="
M86.976044,73.559166 
	C87.239372,74.421051 87.474548,74.812035 87.824059,75.401657 
	C86.335907,75.633141 84.733429,75.665985 82.999146,75.395332 
	C83.900818,73.418549 85.692200,71.802521 85.823784,70.061089 
	C86.198692,65.099464 85.897583,60.086750 86.123215,54.504311 
	C86.566010,53.888596 86.748077,53.862713 86.930153,53.836826 
	C86.936066,60.253971 86.941971,66.671120 86.976044,73.559166 
z"/>
<path fill="#6644CD" opacity="1.000000" stroke="none" 
	d="
M90.066299,48.615860 
	C89.452026,47.133785 88.881050,45.276569 88.408020,43.040749 
	C89.040512,44.521667 89.575058,46.381191 90.066299,48.615860 
z"/>
<path fill="#6644CD" opacity="1.000000" stroke="none" 
	d="
M90.825623,52.751541 
	C90.485992,52.804340 90.403008,52.545982 90.603516,52.119003 
	C90.766930,52.171001 90.832016,52.334339 90.825623,52.751541 
z"/>
<path fill="#040108" opacity="1.000000" stroke="none" 
	d="
M86.992218,53.457832 
	C86.748077,53.862713 86.566010,53.888596 86.141830,54.047279 
	C84.289749,53.730087 82.679771,53.280090 80.704330,52.913109 
	C70.051582,41.775459 50.290104,42.123135 38.239670,53.689217 
	C35.417789,52.095844 33.429012,52.172310 31.703007,54.760017 
	C31.225014,54.494122 31.037699,54.228870 30.899797,53.928719 
	C31.938129,40.355961 39.989803,29.984821 51.717045,27.114597 
	C65.254265,23.801386 76.844841,29.206152 84.922966,42.736786 
	C85.280914,43.536201 85.403221,44.087700 85.677246,45.202255 
	C86.139297,46.348953 86.449615,46.932602 86.759933,47.516254 
	C86.801773,47.853397 86.843605,48.190544 86.949600,49.020229 
	C87.072678,49.677326 87.131599,49.841877 87.190521,50.006432 
	C87.145111,51.030567 87.099701,52.054703 86.992218,53.457832 
z"/>
<path fill="#0B0107" opacity="1.000000" stroke="none" 
	d="
M43.980827,102.233856 
	C45.640118,100.180618 47.134453,98.469566 49.124641,96.190750 
	C56.271320,105.121254 62.966309,113.487328 69.696236,121.897057 
	C62.827328,126.323967 53.167511,125.918045 47.435371,121.267891 
	C42.282642,117.087784 41.010906,110.520271 43.980827,102.233856 
z"/>
<path fill="#0C0208" opacity="1.000000" stroke="none" 
	d="
M60.019791,78.117157 
	C59.080654,78.503342 58.346699,79.067711 57.873077,78.899414 
	C52.064999,76.835602 49.445690,64.651909 53.832691,60.355637 
	C56.929016,57.323357 62.971397,57.180130 66.156181,60.063522 
	C69.194946,62.814716 69.522537,69.169624 66.419090,72.878716 
	C64.752686,74.870316 62.392864,76.281700 60.019791,78.117157 
z"/>
<path fill="#7944EA" opacity="1.000000" stroke="none" 
	d="
M31.944275,54.795567 
	C33.429012,52.172310 35.417789,52.095844 38.018940,53.933823 
	C38.039154,61.241962 37.769840,68.266899 37.256523,75.610260 
	C35.559864,75.327881 34.107216,74.727074 32.326790,73.585037 
	C31.980768,66.961060 31.962521,60.878315 31.944275,54.795567 
z"/>
<path fill="#03010E" opacity="1.000000" stroke="none" 
	d="
M362.879150,95.672050 
	C362.102539,86.705093 369.830261,80.259361 378.721313,80.938080 
	C386.809875,81.555542 391.211121,86.452736 390.817505,95.837486 
	C381.664276,95.837486 372.466919,95.837486 362.879150,95.672050 
z"/>
<path fill="#7546FA" opacity="1.000000" stroke="none" 
	d="
M31.703007,54.760017 
	C31.962521,60.878315 31.980768,66.961060 31.996988,73.509476 
	C28.333498,74.528671 26.686392,73.010796 26.974440,69.271034 
	C27.453331,63.053478 27.841137,56.828903 28.267303,50.607285 
	C28.703251,50.587017 29.139200,50.566746 29.575148,50.546478 
	C29.883070,51.521255 30.190990,52.496033 30.699354,53.699764 
	C31.037699,54.228870 31.225014,54.494122 31.703007,54.760017 
z"/>
<path fill="#6644CD" opacity="1.000000" stroke="none" 
	d="
M86.772469,47.177643 
	C86.449615,46.932602 86.139297,46.348953 85.856590,45.426079 
	C86.184471,45.670910 86.484741,46.254974 86.772469,47.177643 
z"/>
<path fill="#6644CD" opacity="1.000000" stroke="none" 
	d="
M87.283859,49.888706 
	C87.131599,49.841877 87.072678,49.677326 87.055832,49.253990 
	C87.373817,49.188938 87.466911,49.447529 87.283859,49.888706 
z"/>
</svg>